<svg width="717" height="372" viewBox="0 0 717 372" fill="none" xmlns="http://www.w3.org/2000/svg">
<path fill-rule="evenodd" clip-rule="evenodd" d="M555.558 81.8536C573.207 99.5379 585.088 123.042 594.385 149.088C603.682 175.134 610.294 203.61 607.012 232.594C603.731 261.634 590.507 291.07 569.577 305.195C548.808 319.123 520.437 318.044 493.775 315.225L492.967 315.139C466.071 312.258 441.065 307.681 418.196 294.291C395.377 280.901 374.696 258.583 369.526 232.537C364.456 206.696 374.589 177.088 386.176 151.391L386.528 150.613C398.211 124.737 411.236 102.871 428.885 85.1871C446.534 67.5028 468.806 53.9995 491.675 53.152C514.494 52.3045 537.859 64.1694 555.558 81.8536ZM490.547 128.734L489.061 128.895C477.81 130.149 467.331 132.183 457.722 137.791C447.82 143.583 438.845 153.235 436.601 164.501C434.429 175.537 438.688 188.161 443.637 199.178L443.979 199.935C449.049 211.127 454.702 220.584 462.361 228.233C470.019 235.882 479.685 241.722 489.609 242.089C499.511 242.455 509.651 237.324 517.332 229.675C524.867 222.149 529.98 212.187 533.985 201.139L534.181 200.594C538.216 189.329 541.085 177.013 539.661 164.476C538.237 151.916 532.499 139.184 523.416 133.075C514.409 127.055 502.109 127.516 490.547 128.734Z" fill="#26CAE1"/>
<path fill-rule="evenodd" clip-rule="evenodd" d="M487.738 9.09003C487.76 9.055 487.783 9.0194 487.806 8.98437C489.658 6.19444 492.707 6.39557 495.659 6.25659C499.34 6.08313 503.016 5.7125 506.501 4.44183C512.166 2.37735 517.86 -0.619939 524.083 0.112856C528.827 0.671069 531.573 3.93673 531.458 8.70583C531.452 8.93691 531.441 9.16686 531.425 9.39682C531.411 9.59626 533.684 11.1568 533.923 11.3822C535.001 12.4003 536.054 13.5958 536.75 14.9128C540.029 21.1182 537.013 28.5263 533.613 33.9542C533.446 34.2215 531.629 36.8419 531.662 36.8752C530.313 35.5565 529.646 35.165 527.697 31.8756C529.225 30.6767 529.814 28.6083 529.625 27.3901C529.373 25.763 528.462 24.4047 524.581 25.5098C523.914 24.768 523.108 22.6482 522.49 20.882C522.112 19.8045 521.96 18.8288 521.903 18.0661C517.45 20.3871 513.544 21.5504 510.868 22.1724C502.746 24.0623 489.674 25.2985 486.999 14.7496C486.518 12.8534 486.693 10.7398 487.738 9.09003Z" fill="#0B0030"/>
<path d="M532.33 33.197C532.798 33.2088 533.169 33.5975 533.157 34.0654C533.101 36.328 532.664 38.6459 531.746 40.9454C530.233 44.7403 527.935 47.436 525.288 49.4586L525.181 49.5391L525.181 61.3105C525.181 61.5409 525.087 61.76 524.924 61.9187L524.859 61.9753L516.193 68.8236C515.899 69.0565 515.489 69.066 515.185 68.8561L515.117 68.8037L507.079 61.9555C506.911 61.8123 506.806 61.6102 506.785 61.3927L506.781 61.3105V53.6C506.781 53.132 507.161 52.7526 507.629 52.7526C508.07 52.7526 508.432 53.0887 508.473 53.5184L508.477 53.6L508.477 60.9186L515.687 67.0618L523.485 60.9L523.485 49.1129C523.485 48.8715 523.588 48.6432 523.765 48.4835L523.835 48.4269C526.436 46.5408 528.707 43.9891 530.171 40.3176C531.011 38.2136 531.411 36.0934 531.462 34.0236C531.473 33.5557 531.862 33.1857 532.33 33.197Z" fill="#0B0030"/>
<path d="M524.1 60.4956C524.524 60.3757 524.964 60.6006 525.12 61.0029L525.146 61.0804L529.091 75.0165C529.29 75.7198 528.569 76.3156 527.926 76.0196L527.859 75.9858L515.669 69.1311L503.626 75.9837C502.977 76.3529 502.216 75.7663 502.379 75.0619L502.398 74.9911L506.819 61.055C506.96 60.6088 507.437 60.3618 507.883 60.5032C508.303 60.6364 508.547 61.0662 508.456 61.4882L508.435 61.5672L504.669 73.4392L515.247 67.4211C515.48 67.2887 515.76 67.2748 516.003 67.3797L516.083 67.419L526.899 73.5007L523.515 61.5418C523.395 61.1179 523.62 60.6781 524.022 60.5216L524.1 60.4956Z" fill="#0B0030"/>
<path d="M507.25 58.5007C507.669 58.292 508.178 58.4625 508.387 58.8815C508.596 59.3004 508.425 59.8092 508.006 60.0179L506.722 60.6476C505.458 61.2602 503.812 62.0404 501.598 63.0776L485.324 70.6675L484.611 71.0076L484.258 71.5028C482.95 73.2998 480.039 76.9833 474.492 83.9009L464.059 96.9067L462.508 98.8578L462.86 99.2905C464.425 101.204 466.04 103.107 467.707 105L468.544 105.946C470.66 108.316 472.809 110.612 474.992 112.838L475.261 113.111L481.969 104.71C482.483 104.066 483.521 104.46 483.478 105.282L479.296 186.371L529.889 186.371C530.33 186.371 530.692 186.707 530.733 187.137L530.737 187.219C530.737 187.659 530.401 188.021 529.971 188.062L529.889 188.066H478.403C477.918 188.066 477.531 187.66 477.556 187.175L481.648 107.828L475.99 114.914C475.673 115.31 475.083 115.341 474.726 114.982C472.199 112.439 469.717 109.806 467.279 107.073C465.014 104.533 462.844 101.975 460.762 99.3976C460.514 99.0896 460.511 98.6506 460.757 98.34L464.977 93.0444L476 79.3043C480.387 73.811 482.553 71.031 483.338 69.8669C483.422 69.7415 483.539 69.641 483.675 69.5758L487.724 67.6678L500.869 61.5475C503.915 60.1203 505.882 59.1817 507.25 58.5007Z" fill="#0B0030"/>
<path d="M523.559 57.7212C523.739 57.3191 524.193 57.126 524.603 57.2641L524.679 57.2939L549.609 68.4451C549.76 68.5127 549.887 68.6226 549.976 68.7607L550.017 68.832L567.986 103.863C568.161 104.205 568.084 104.617 567.807 104.873L567.744 104.925L566.099 106.173L566.032 106.23L551.957 116.919C551.578 117.207 551.041 117.125 550.764 116.751L550.717 116.682L543.371 104.508L546.311 156.63C546.311 157.098 545.931 157.478 545.463 157.478C545.022 157.478 544.66 157.142 544.619 156.712L541.486 101.193C541.438 100.337 542.533 99.973 543.015 100.642L543.059 100.708L551.682 114.998L564.941 104.929L565.006 104.874L566.153 104.004L548.644 69.8707L523.986 58.841C523.584 58.661 523.391 58.2064 523.529 57.7973L523.559 57.7212Z" fill="#0B0030"/>
<path d="M565.52 104.702C565.878 104.702 566.184 104.924 566.308 105.237L566.318 105.266L574.15 124.06C575.007 126.114 574.891 128.441 573.845 130.396L573.74 130.584L540.23 189.046C538.469 192.12 534.678 193.363 531.446 191.953L531.282 191.879L530.699 191.607C529.284 190.947 528.657 189.29 529.258 187.867L529.311 187.749L532.956 180.088L530.456 180.089C529.044 180.089 527.892 178.976 527.829 177.581L527.826 177.46C527.826 176.422 528.437 175.485 529.378 175.062L529.493 175.013L537.687 171.787L544.673 156.313L544.69 156.271L558.343 126.002L552.199 115.544C551.976 115.164 552.083 114.681 552.433 114.428L552.501 114.384C552.881 114.161 553.364 114.267 553.617 114.617L553.662 114.685L560.027 125.523C560.15 125.733 560.176 125.986 560.101 126.215L560.068 126.3L546.25 156.935L546.236 156.974L539.091 172.799C539.011 172.975 538.874 173.117 538.704 173.205L538.629 173.238L530.115 176.59C529.757 176.732 529.522 177.076 529.522 177.46C529.522 177.949 529.897 178.349 530.376 178.39L530.456 178.394H534.299C534.897 178.394 535.299 178.992 535.093 179.537L535.064 179.605L530.843 188.477C530.571 189.048 530.793 189.726 531.337 190.03L531.416 190.071L532 190.344C534.42 191.473 537.293 190.6 538.679 188.338L538.759 188.203L572.269 129.742C573.118 128.26 573.257 126.479 572.655 124.888L572.585 124.712L564.737 105.881C564.705 105.803 564.684 105.722 564.676 105.638L564.672 105.549C564.672 105.081 565.051 104.702 565.52 104.702Z" fill="#0B0030"/>
<path d="M415.366 68.3347C415.523 68.0207 415.856 67.8386 416.201 67.8696L416.28 67.8806L436.504 71.6509C437.888 71.8934 439.098 72.7184 439.83 73.9113L439.916 74.0562L457.506 105.1L462.406 100.204C462.716 99.8936 463.207 99.8741 463.54 100.146L463.605 100.204C463.915 100.514 463.935 101.005 463.663 101.338L463.605 101.402L457.918 107.087C457.542 107.463 456.923 107.4 456.625 106.975L456.581 106.905L438.44 74.8918C437.994 74.1053 437.237 73.5466 436.351 73.3484L436.202 73.3188L416.597 69.6638L415.686 71.4859L433.605 79.1646C433.78 79.2395 433.924 79.3707 434.015 79.5361L434.05 79.609L450.59 118.08C453.007 123.695 460.309 125.096 464.636 120.83L464.766 120.699L473.104 112.144C473.431 111.809 473.968 111.802 474.303 112.129C474.618 112.435 474.644 112.926 474.376 113.262L474.319 113.327L465.981 121.881C460.88 127.119 452.128 125.563 449.122 118.951L449.032 118.749L432.626 80.5891L414.191 72.69C413.767 72.5085 413.571 72.0259 413.734 71.6055L413.767 71.532L415.366 68.3347Z" fill="#0B0030"/>
<path d="M543.23 181.253L543.312 181.256C543.751 181.296 544.082 181.663 544.084 182.095L544.081 182.176L529.519 344.386C529.482 344.795 529.158 345.115 528.756 345.153L528.674 345.157H513.734C513.305 345.157 512.949 344.839 512.893 344.423L512.886 344.344L507.618 212.758L494.235 266.716L487.779 344.38C487.744 344.794 487.417 345.117 487.011 345.154L486.934 345.157H471.456C471.016 345.157 470.653 344.821 470.612 344.391L470.608 344.31V263.646L470.616 263.532L481.034 187.105C481.098 186.641 481.525 186.316 481.989 186.38C482.426 186.439 482.739 186.821 482.722 187.252L482.715 187.334L472.304 263.703V343.462H486.153L492.55 266.508C492.552 266.485 492.555 266.463 492.559 266.441L492.572 266.374L507.405 206.575C507.634 205.652 508.955 205.758 509.068 206.661L509.075 206.745L514.548 343.462H527.899L542.392 182.025C542.429 181.613 542.754 181.297 543.15 181.257L543.23 181.253Z" fill="#0B0030"/>
<path d="M525.52 343.462C525.961 343.462 526.323 343.798 526.364 344.228L526.368 344.309L526.368 354.009L532.366 362.594C532.449 362.712 532.5 362.85 532.514 362.993L532.519 363.079V369.429C532.519 369.869 532.182 370.232 531.752 370.273L531.671 370.276H509.342C508.901 370.276 508.539 369.94 508.498 369.511L508.494 369.429V363.079C508.494 362.901 508.55 362.729 508.653 362.585L508.708 362.516L515.949 354.366L515.95 344.309C515.95 343.869 516.286 343.507 516.716 343.466L516.798 343.462C517.238 343.462 517.601 343.798 517.642 344.228L517.645 344.309V354.688C517.645 354.866 517.59 355.039 517.487 355.182L517.432 355.251L510.19 363.4V368.581H530.823V363.345L524.825 354.762C524.742 354.643 524.691 354.506 524.676 354.363L524.672 354.276V344.309C524.672 343.841 525.052 343.462 525.52 343.462Z" fill="#0B0030"/>
<path d="M531.669 362.234C532.138 362.234 532.517 362.613 532.517 363.081C532.517 363.522 532.181 363.884 531.751 363.925L531.669 363.929H509.34C508.872 363.929 508.492 363.549 508.492 363.081C508.492 362.641 508.828 362.279 509.258 362.238L509.34 362.234H531.669Z" fill="#0B0030"/>
<path d="M483.017 343.462C483.458 343.462 483.82 343.798 483.862 344.228L483.865 344.309L483.865 354.009L489.863 362.594C489.946 362.712 489.997 362.85 490.011 362.993L490.016 363.079V369.429C490.016 369.869 489.679 370.232 489.249 370.273L489.168 370.276H466.839C466.398 370.276 466.036 369.94 465.995 369.511L465.991 369.429V363.079C465.991 362.911 466.041 362.747 466.134 362.609L466.184 362.541L472.881 354.385L472.882 344.309C472.882 343.869 473.218 343.507 473.648 343.466L473.73 343.462C474.171 343.462 474.533 343.798 474.574 344.228L474.578 344.309V354.688C474.578 354.856 474.528 355.02 474.435 355.159L474.385 355.226L467.687 363.383V368.581H488.319V363.345L482.322 354.762C482.239 354.643 482.189 354.506 482.174 354.363L482.17 354.276V344.309C482.17 343.841 482.549 343.462 483.017 343.462Z" fill="#0B0030"/>
<path d="M489.167 362.234C489.636 362.234 490.015 362.613 490.015 363.081C490.015 363.522 489.679 363.884 489.249 363.925L489.167 363.929H466.838C466.37 363.929 465.99 363.549 465.99 363.081C465.99 362.641 466.327 362.279 466.756 362.238L466.838 362.234H489.167Z" fill="#0B0030"/>
<path d="M497.874 20.2828C497.997 19.8311 498.463 19.5644 498.915 19.6871C499.367 19.8097 499.634 20.2754 499.511 20.7271C497.205 29.2114 497.104 37.5498 499.71 44.2341C501.034 47.6277 503.267 50.437 506.06 52.0191C508.996 53.6827 512.997 53.5911 517.146 52.1198C517.588 51.9633 518.072 52.1941 518.229 52.6352C518.386 53.0763 518.155 53.5608 517.713 53.7173C513.145 55.3373 508.659 55.44 505.224 53.4937C502.068 51.7056 499.588 48.5864 498.13 44.8498C495.375 37.785 495.481 29.0891 497.874 20.2828Z" fill="#0B0030"/>
<path fill-rule="evenodd" clip-rule="evenodd" d="M690.56 233.062H538.661L542.381 196.01H690.56V233.062Z" fill="#0B0030"/>
<path fill-rule="evenodd" clip-rule="evenodd" d="M416.795 68.5307C416.795 73.6513 412.641 77.8017 407.519 77.8017C402.396 77.8017 398.243 73.6513 398.243 68.5307C398.243 63.4102 402.396 59.2598 407.519 59.2598C412.641 59.2598 416.795 63.4102 416.795 68.5307Z" fill="#0B0030"/>
<path d="M407.892 70.9072C408.333 70.9072 408.695 71.2433 408.737 71.6731L408.74 71.7547V147.782C408.74 148.222 408.404 148.584 407.974 148.625L407.892 148.629H367.998C367.558 148.629 367.195 148.293 367.154 147.863L367.15 147.782V105.072C367.15 104.604 367.53 104.225 367.998 104.225C368.439 104.225 368.801 104.561 368.842 104.991L368.846 105.072L368.846 146.934H407.044L407.045 71.7547C407.045 71.3142 407.381 70.9522 407.811 70.9111L407.892 70.9072Z" fill="#0B0030"/>
<path fill-rule="evenodd" clip-rule="evenodd" d="M358.543 100.487L368.411 83.6196L378.144 100.487H358.543Z" fill="#0B0030"/>
<path d="M406.577 37.6841C407.018 37.6841 407.38 38.0202 407.421 38.45L407.425 38.5316V51.101C407.425 51.569 407.046 51.9484 406.577 51.9484C406.137 51.9484 405.774 51.6123 405.733 51.1826L405.729 51.101V38.5316C405.729 38.0635 406.109 37.6841 406.577 37.6841Z" fill="#0B0030"/>
<path d="M425.293 44.2765C425.624 43.9456 426.161 43.9456 426.492 44.2765C426.802 44.5868 426.822 45.0778 426.55 45.4107L426.492 45.4751L416.28 55.6822C415.948 56.0132 415.412 56.0132 415.08 55.6822C414.77 55.372 414.751 54.8809 415.022 54.5481L415.08 54.4837L425.293 44.2765Z" fill="#0B0030"/>
<path d="M638.383 44.0278C638.823 44.0278 639.186 44.3639 639.227 44.7937L639.231 44.8753V68.1581C639.231 68.5986 638.894 68.9606 638.464 69.0017L638.383 69.0056H565.847C565.379 69.0056 564.999 68.6262 564.999 68.1581C564.999 67.7176 565.335 67.3556 565.765 67.3145L565.847 67.3106L637.535 67.3105V45.7227L543.236 45.7228C542.795 45.7228 542.433 45.3867 542.392 44.9569L542.388 44.8753C542.388 44.4348 542.724 44.0728 543.154 44.0317L543.236 44.0278H638.383Z" fill="#0B0030"/>
<path d="M638.383 67.3105C638.824 67.3105 639.186 67.6467 639.227 68.0764L639.231 68.158V156.63C639.231 157.071 638.895 157.433 638.465 157.474L638.383 157.478H568.571C568.102 157.478 567.723 157.098 567.723 156.63C567.723 156.19 568.059 155.828 568.489 155.787L568.571 155.783L637.535 155.783L637.536 68.158C637.536 67.7175 637.872 67.3555 638.302 67.3144L638.383 67.3105Z" fill="#0B0030"/>
<path d="M621.392 51.9968C621.702 51.6865 622.194 51.6671 622.527 51.9386L622.591 51.9968L629.814 59.2162C630.145 59.5472 630.145 60.0838 629.814 60.4148C629.504 60.725 629.012 60.7444 628.679 60.4729L628.615 60.4148L621.392 53.1953C621.061 52.8643 621.061 52.3277 621.392 51.9968Z" fill="#0B0030"/>
<path d="M628.615 51.9968C628.946 51.6658 629.483 51.6658 629.814 51.9968C630.125 52.307 630.144 52.7981 629.872 53.1309L629.814 53.1953L622.591 60.4148C622.26 60.7457 621.723 60.7457 621.392 60.4148C621.081 60.1045 621.062 59.6135 621.334 59.2806L621.392 59.2162L628.615 51.9968Z" fill="#0B0030"/>
<path fill-rule="evenodd" clip-rule="evenodd" d="M612.271 92.5867C612.271 94.6433 610.603 96.3106 608.546 96.3106C606.488 96.3106 604.819 94.6433 604.819 92.5867C604.819 90.5296 606.488 88.8623 608.546 88.8623C610.603 88.8623 612.271 90.5296 612.271 92.5867Z" fill="#0B0030"/>
<path fill-rule="evenodd" clip-rule="evenodd" d="M593.477 92.5867C593.477 94.6433 591.809 96.3106 589.752 96.3106C587.694 96.3106 586.025 94.6433 586.025 92.5867C586.025 90.5296 587.694 88.8623 589.752 88.8623C591.809 88.8623 593.477 90.5296 593.477 92.5867Z" fill="#0B0030"/>
<path fill-rule="evenodd" clip-rule="evenodd" d="M574.684 92.5867C574.684 94.6433 573.015 96.3106 570.958 96.3106C568.9 96.3106 567.231 94.6433 567.231 92.5867C567.231 90.5296 568.9 88.8623 570.958 88.8623C573.015 88.8623 574.684 90.5296 574.684 92.5867Z" fill="#0B0030"/>
<path fill-rule="evenodd" clip-rule="evenodd" d="M612.271 111.073C612.271 113.13 610.603 114.797 608.546 114.797C606.488 114.797 604.819 113.13 604.819 111.073C604.819 109.016 606.488 107.349 608.546 107.349C610.603 107.349 612.271 109.016 612.271 111.073Z" fill="#0B0030"/>
<path fill-rule="evenodd" clip-rule="evenodd" d="M593.477 111.073C593.477 113.13 591.809 114.797 589.752 114.797C587.694 114.797 586.025 113.13 586.025 111.073C586.025 109.016 587.694 107.349 589.752 107.349C591.809 107.349 593.477 109.016 593.477 111.073Z" fill="#0B0030"/>
<path fill-rule="evenodd" clip-rule="evenodd" d="M574.684 111.073C574.684 113.13 573.015 114.797 570.958 114.797C568.9 114.797 567.231 113.13 567.231 111.073C567.231 109.016 568.9 107.349 570.958 107.349C573.015 107.349 574.684 109.016 574.684 111.073Z" fill="#0B0030"/>
<path fill-rule="evenodd" clip-rule="evenodd" d="M612.271 129.559C612.271 131.616 610.603 133.284 608.546 133.284C606.488 133.284 604.819 131.616 604.819 129.559C604.819 127.503 606.488 125.835 608.546 125.835C610.603 125.835 612.271 127.503 612.271 129.559Z" fill="#0B0030"/>
<path fill-rule="evenodd" clip-rule="evenodd" d="M593.477 129.559C593.477 131.616 591.809 133.284 589.752 133.284C587.694 133.284 586.025 131.616 586.025 129.559C586.025 127.503 587.694 125.835 589.752 125.835C591.809 125.835 593.477 127.503 593.477 129.559Z" fill="#0B0030"/>
<path d="M697.802 89.8125C700.115 89.8125 702.028 90.4735 703.746 91.7445C704.974 92.6541 705.803 93.5425 707.453 95.5698L707.967 96.2002C711.033 99.92 712.764 101.112 716.123 101.112C716.591 101.112 716.971 101.492 716.971 101.96C716.971 102.428 716.591 102.807 716.123 102.807C713.81 102.807 711.896 102.146 710.179 100.875L709.938 100.693C708.836 99.8422 708.011 98.9421 706.471 97.05L705.957 96.4196C702.891 92.6998 701.16 91.5075 697.802 91.5075C694.443 91.5075 692.713 92.6998 689.647 96.4196L688.813 97.4406C687.37 99.1958 686.572 100.026 685.425 100.875C683.708 102.146 681.794 102.807 679.481 102.807C677.169 102.807 675.255 102.146 673.538 100.875L673.297 100.693C672.195 99.8422 671.371 98.9421 669.831 97.05L669.663 96.8434C666.377 92.7897 664.645 91.5075 661.163 91.5075C657.742 91.5075 656.01 92.7444 652.836 96.6289L652.175 97.4406C650.732 99.1959 649.933 100.026 648.786 100.875C647.069 102.146 645.156 102.807 642.844 102.807C640.531 102.807 638.618 102.146 636.901 100.875L636.66 100.693C635.558 99.8422 634.733 98.942 633.193 97.0499L632.851 96.6286L632.51 96.2153C629.549 92.656 627.821 91.5075 624.526 91.5075C624.057 91.5075 623.678 91.128 623.678 90.66C623.678 90.1919 624.057 89.8125 624.526 89.8125C626.838 89.8125 628.751 90.4735 630.468 91.7444L630.709 91.9264C631.772 92.7471 632.576 93.6134 634.013 95.3707L634.343 95.7762C637.629 99.83 639.361 101.112 642.844 101.112C646.202 101.112 647.932 99.9201 650.998 96.2004L651.999 94.976C653.337 93.3586 654.118 92.56 655.219 91.7445C656.937 90.4735 658.85 89.8125 661.163 89.8125C663.475 89.8125 665.389 90.4735 667.106 91.7445C668.334 92.6541 669.163 93.5426 670.813 95.5699L671.327 96.2002C674.392 99.92 676.123 101.112 679.481 101.112C682.84 101.112 684.571 99.92 687.636 96.2002L688.622 94.9946C689.97 93.3646 690.752 92.5631 691.858 91.7445C693.576 90.4735 695.489 89.8125 697.802 89.8125Z" fill="#0B0030"/>
<path d="M697.802 109.661C700.115 109.661 702.028 110.322 703.746 111.593L703.986 111.775C704.971 112.535 705.734 113.334 706.982 114.843L707.967 116.048C711.033 119.768 712.764 120.96 716.123 120.96C716.591 120.96 716.971 121.34 716.971 121.808C716.971 122.276 716.591 122.655 716.123 122.655C713.81 122.655 711.896 121.994 710.179 120.723L709.938 120.541C708.836 119.69 708.011 118.79 706.471 116.898L706.304 116.692C703.017 112.638 701.285 111.356 697.802 111.356C694.381 111.356 692.649 112.593 689.475 116.477L688.813 117.289C687.37 119.044 686.572 119.875 685.425 120.723C683.708 121.994 681.794 122.655 679.481 122.655C677.169 122.655 675.255 121.994 673.538 120.723L673.297 120.541C672.195 119.69 671.371 118.79 669.831 116.898L669.663 116.692C666.377 112.638 664.645 111.356 661.163 111.356C657.742 111.356 656.01 112.593 652.836 116.477L652.175 117.289C650.732 119.044 649.933 119.875 648.786 120.724C647.069 121.994 645.156 122.655 642.844 122.655C640.531 122.655 638.618 121.994 636.901 120.723L636.66 120.541C635.558 119.69 634.733 118.79 633.193 116.898L632.851 116.477L632.51 116.063C629.549 112.504 627.821 111.356 624.526 111.356C624.057 111.356 623.678 110.976 623.678 110.508C623.678 110.04 624.057 109.661 624.526 109.661C626.838 109.661 628.751 110.322 630.468 111.593L630.709 111.775C631.772 112.595 632.576 113.462 634.013 115.219L634.343 115.624C637.629 119.678 639.361 120.96 642.844 120.96C646.202 120.96 647.932 119.768 650.998 116.049L651.999 114.824C653.337 113.207 654.118 112.408 655.219 111.593C656.937 110.322 658.85 109.661 661.163 109.661C663.475 109.661 665.389 110.322 667.106 111.593L667.346 111.775C668.449 112.626 669.273 113.526 670.813 115.418L671.327 116.048C674.392 119.768 676.123 120.96 679.481 120.96C682.84 120.96 684.571 119.768 687.636 116.048L688.622 114.843C689.97 113.213 690.752 112.411 691.858 111.593C693.576 110.322 695.489 109.661 697.802 109.661Z" fill="#0B0030"/>
<path fill-rule="evenodd" clip-rule="evenodd" d="M466.838 369.429H489.167V363.082H466.838V369.429Z" fill="#0B0030"/>
<path fill-rule="evenodd" clip-rule="evenodd" d="M509.341 369.429H531.67V363.082H509.341V369.429Z" fill="#0B0030"/>
<path fill-rule="evenodd" clip-rule="evenodd" d="M575.086 209.441C575.402 209.1 575.927 209.08 576.268 209.381L576.329 209.441L584.092 217.81L591.855 209.441C592.171 209.1 592.697 209.08 593.037 209.381L593.099 209.441L600.863 217.81L608.628 209.441C608.944 209.1 609.469 209.08 609.81 209.381L609.872 209.441L617.634 217.81L625.399 209.441C625.715 209.1 626.241 209.08 626.581 209.381L626.643 209.441L634.405 217.81L642.174 209.441C642.49 209.1 643.015 209.08 643.356 209.381L643.417 209.441L651.807 218.48C652.126 218.824 652.106 219.36 651.762 219.678C651.44 219.977 650.949 219.978 650.626 219.694L650.564 219.633L642.795 211.263L635.027 219.633C634.711 219.974 634.185 219.993 633.845 219.693L633.783 219.633L626.02 211.263L618.256 219.633C617.94 219.973 617.414 219.993 617.074 219.693L617.012 219.633L609.249 211.263L601.484 219.633C601.169 219.973 600.643 219.993 600.302 219.693L600.241 219.633L592.477 211.263L584.714 219.633C584.398 219.973 583.872 219.993 583.532 219.693L583.47 219.633L575.707 211.263L567.943 219.633C567.628 219.973 567.102 219.993 566.761 219.693L566.7 219.633L558.315 210.593C557.997 210.25 558.017 209.714 558.36 209.395C558.682 209.097 559.174 209.096 559.496 209.38L559.559 209.441L567.322 217.81L575.086 209.441ZM670.501 218.156C670.97 218.156 671.349 218.535 671.349 219.003C671.349 219.444 671.013 219.806 670.583 219.847L670.501 219.851H659.293C658.825 219.851 658.445 219.471 658.445 219.003C658.445 218.563 658.781 218.201 659.211 218.16L659.293 218.156H670.501Z" stroke="#0B0030" stroke-width="4.54871" stroke-linecap="round" stroke-linejoin="round"/>
<path fill-rule="evenodd" clip-rule="evenodd" d="M507.791 53.6465C508.998 53.9267 510.828 54.203 513.034 53.9714C515.002 53.7646 516.578 53.2256 517.654 52.7617C517.209 53.7318 516.019 55.9839 513.44 57.693C511.042 59.2829 508.697 59.571 507.629 59.6371C507.683 57.6399 507.736 55.6432 507.791 53.6465Z" fill="#0B0030"/>
<path d="M517.318 51.9838C516.001 52.5517 514.557 52.9594 512.945 53.1287C511.159 53.3163 509.514 53.1765 507.983 52.8211C507.46 52.6999 506.958 53.0878 506.943 53.6236L506.782 59.6142C506.768 60.1118 507.184 60.5139 507.682 60.4831C509.721 60.3569 511.824 59.7811 513.909 58.3994C516.136 56.924 517.528 55.0732 518.425 53.1146C518.748 52.4088 518.031 51.6761 517.318 51.9838ZM515.774 54.3169L515.726 54.385C515.025 55.3362 514.128 56.2207 512.972 56.9867L512.736 57.1388C511.323 58.0278 509.899 58.4984 508.502 58.6973L508.611 54.6746L508.823 54.7099C510.173 54.9207 511.602 54.9741 513.122 54.8143C513.96 54.7264 514.757 54.5807 515.517 54.386L515.774 54.3169Z" fill="#0B0030"/>
<path fill-rule="evenodd" clip-rule="evenodd" d="M658.166 293.02C658.166 298.141 654.013 302.292 648.89 302.292C643.767 302.292 639.614 298.141 639.614 293.02C639.614 287.9 643.767 283.75 648.89 283.75C654.013 283.75 658.166 287.9 658.166 293.02Z" fill="#0B0030"/>
<path fill-rule="evenodd" clip-rule="evenodd" d="M652.245 355.897H670.412V337.739H652.245V355.897Z" fill="#0B0030"/>
<path fill-rule="evenodd" clip-rule="evenodd" d="M587.481 258.743H658.166V246.38H587.481V258.743Z" fill="#0B0030"/>
<path fill-rule="evenodd" clip-rule="evenodd" d="M599.177 301.335L609.045 284.467L618.777 301.335H599.177Z" fill="#0B0030"/>
<path d="M669.618 237.899C670.059 237.899 670.421 238.236 670.462 238.665L670.466 238.747V314.774C670.466 315.214 670.13 315.576 669.7 315.617L669.618 315.621H629.724C629.283 315.621 628.921 315.285 628.88 314.855L628.876 314.774L628.876 272.912H588.894V345.971H661.328C661.769 345.971 662.131 346.307 662.172 346.737L662.176 346.819C662.176 347.259 661.84 347.621 661.41 347.662L661.328 347.666H588.046C587.605 347.666 587.243 347.33 587.202 346.9L587.198 346.819V272.064C587.198 271.624 587.535 271.262 587.965 271.221L588.046 271.217H629.724C630.165 271.217 630.527 271.553 630.568 271.983L630.572 272.064L630.572 313.926H668.77L668.77 238.747C668.77 238.306 669.106 237.944 669.536 237.903L669.618 237.899Z" fill="#0B0030"/>
<path d="M422.808 269.194H383.472C383.004 269.194 382.624 269.573 382.624 270.041V279.021C382.624 279.489 383.004 279.868 383.472 279.868H422.808C423.276 279.868 423.656 279.489 423.656 279.021V270.041C423.656 269.573 423.276 269.194 422.808 269.194ZM421.959 270.889V278.173H384.319V270.889H421.959Z" fill="#0B0030"/>
<path d="M420.008 278.177C420.448 278.147 420.832 278.458 420.902 278.884L420.911 278.965L423.777 321.073L424.444 330.825L427.101 369.827C427.132 370.291 426.785 370.688 426.331 370.729L426.255 370.732H380.026C379.561 370.732 379.188 370.359 379.179 369.904L379.181 369.827L381.837 330.825L382.504 321.074L385.37 278.965C385.402 278.498 385.806 278.145 386.273 278.177C386.713 278.207 387.052 278.567 387.063 278.998L387.062 279.08L384.196 321.189L383.529 330.941L380.934 369.037H425.347L422.752 330.941L422.085 321.189L419.219 279.08C419.188 278.613 419.541 278.209 420.008 278.177Z" fill="#0B0030"/>
<path d="M374.859 233.298L375.064 233.436L375.442 233.694C375.623 233.819 375.794 233.94 375.967 234.067C376.877 234.731 377.734 235.452 378.644 236.347L379.136 236.836C382.344 240.059 384.155 242.612 385.114 246.33C385.714 248.652 385.673 250.181 385.18 252.837L385.027 253.644C384.642 255.698 384.613 256.93 385.068 258.593C385.93 261.74 388.224 264.39 391.711 266.65C392.103 266.904 392.215 267.429 391.961 267.822C391.706 268.214 391.181 268.326 390.788 268.072C386.982 265.605 384.419 262.646 383.432 259.041C382.919 257.167 382.93 255.739 383.308 253.614L383.46 252.807C383.961 250.194 384.017 248.864 383.472 246.753C382.564 243.232 380.766 240.812 377.455 237.555C376.605 236.72 375.812 236.052 374.968 235.436C374.751 235.278 374.537 235.127 374.298 234.964L372.938 234.054C371.677 233.196 370.89 232.483 370.088 231.362C369.937 231.151 369.788 230.929 369.642 230.692C367.448 227.16 366.544 222.92 368.447 220.712C369.715 219.243 371.869 218.91 374.572 219.32C375.494 219.46 376.429 219.682 377.34 219.955C377.931 220.132 378.422 220.303 378.765 220.437C387.671 223.885 394.69 234.935 394.155 245.125C394.08 246.56 393.895 247.694 393.526 249.292L393.187 250.727C393.152 250.88 393.121 251.018 393.092 251.152C392.678 253.071 392.631 254.503 393.046 256.421C393.864 260.206 396.026 263.37 399.127 266.163C399.474 266.476 399.502 267.012 399.189 267.36C398.875 267.707 398.339 267.735 397.991 267.422C394.649 264.412 392.292 260.963 391.388 256.779C390.94 254.708 390.969 253.094 391.371 251.098L391.465 250.652L391.799 249.227C392.199 247.543 392.388 246.445 392.462 245.036C392.959 235.572 386.37 225.199 378.152 222.017L377.928 221.933C377.643 221.829 377.277 221.706 376.852 221.578C376.012 221.326 375.153 221.123 374.318 220.996C372.138 220.665 370.51 220.917 369.732 221.819C368.483 223.267 369.245 226.839 371.082 229.798C371.21 230.004 371.338 230.196 371.467 230.376C372.096 231.256 372.703 231.824 373.69 232.514L374.155 232.83C374.469 233.039 374.901 233.326 374.859 233.298Z" fill="#0B0030"/>
<path d="M393.745 174.592C396.055 170.689 401.941 169.764 405.897 172.4C409.431 174.754 411.317 179.328 411.038 184.04C410.819 187.742 409.497 191.327 407.053 195.678L406.078 197.38C403.312 202.202 402.378 204.812 402.921 207.771C403.156 209.051 403.59 210.055 404.713 212.144L405.17 212.992C405.312 213.258 405.424 213.47 405.537 213.692C407.948 218.411 409.13 223.749 408.935 229.045C408.812 232.391 408.329 235.041 407.002 240.482L406.239 243.597C406.039 244.426 405.89 245.068 405.737 245.763C404.271 252.414 404.65 258.533 406.692 266.621C406.807 267.075 406.532 267.535 406.078 267.65C405.624 267.764 405.163 267.489 405.048 267.036C402.985 258.866 402.566 252.574 403.998 245.783L404.081 245.398C404.247 244.642 404.408 243.949 404.633 243.023L405.503 239.467C406.69 234.549 407.128 232.055 407.24 228.983C407.42 224.108 406.364 219.19 404.204 214.816L404.026 214.463C403.954 214.322 403.882 214.183 403.802 214.03L402.974 212.487C401.945 210.542 401.511 209.479 401.253 208.077C400.636 204.714 401.573 201.909 404.292 197.091L405.374 195.202C407.832 190.892 409.139 187.433 409.345 183.94C409.591 179.79 407.946 175.802 404.956 173.81C401.769 171.687 396.991 172.438 395.205 175.455C394.339 176.918 394.107 178.836 394.441 180.955L394.481 181.191C394.678 182.31 394.935 183.218 395.542 185.052L396.06 186.617C396.143 186.873 396.211 187.089 396.284 187.329C397.744 192.095 398.124 196.807 397.223 201.103L397.155 201.412C396.829 202.835 396.356 204.038 395.323 206.271L394.766 207.471C393.506 210.212 393.018 211.658 392.888 213.413C392.702 215.905 393.384 217.932 395.42 221.857L396.384 223.699C396.77 224.444 396.98 224.873 397.243 225.445C397.413 225.813 397.566 226.166 397.704 226.509C399.975 232.136 401.15 236.762 401.253 241.49C401.337 245.359 400.81 249.158 399.669 252.649C399.523 253.094 399.045 253.337 398.6 253.191C398.154 253.046 397.912 252.567 398.057 252.123C399.137 248.819 399.638 245.209 399.558 241.527C399.46 237.035 398.332 232.596 396.131 227.143C396.035 226.905 395.931 226.661 395.818 226.409L395.702 226.153C395.438 225.578 395.227 225.149 394.809 224.346L393.907 222.623C391.779 218.519 391.013 216.285 391.184 213.472L391.197 213.288C391.351 211.216 391.911 209.599 393.338 206.518L393.88 205.351C394.862 203.214 395.277 202.114 395.563 200.755C396.377 196.876 396.063 192.586 394.779 188.212L394.607 187.644C394.56 187.494 394.513 187.347 394.461 187.183L393.789 185.149C393.257 183.518 393.01 182.612 392.811 181.486C392.356 178.907 392.615 176.501 393.745 174.592Z" fill="#0B0030"/>
<path d="M431.567 204.595C434.684 202.526 438.95 202.53 441.487 204.892C444.389 207.596 444.602 212.624 442.858 217.12C440.84 222.32 437.841 227.351 433.958 232.253L433.36 232.999C432.128 234.52 431.002 235.818 428.87 238.199L426.737 240.58C424.894 242.646 423.839 243.872 422.701 245.285L421.206 247.161L421.053 247.355C418.278 250.897 416.647 253.501 415.68 256.321C414.467 259.861 414.556 263.344 416.193 267.016C416.384 267.443 416.192 267.945 415.764 268.135C415.336 268.326 414.835 268.133 414.644 267.706C412.827 263.632 412.727 259.707 414.076 255.772C415.055 252.914 416.629 250.323 419.207 246.969L419.922 246.051L421.38 244.222C422.611 242.694 423.739 241.389 425.822 239.059L428.309 236.282C430.092 234.281 431.102 233.101 432.258 231.665C436.222 226.741 439.261 221.702 441.277 216.507C442.798 212.586 442.615 208.26 440.331 206.132C438.414 204.348 435.01 204.344 432.506 206.007C430.29 207.478 428.679 209.988 427.555 213.337C426.797 215.596 426.347 217.662 425.746 221.361L425.265 224.384C424.372 229.882 423.712 232.538 422.281 235.626L422.121 235.966C421.049 238.209 419.849 240.004 417.322 243.374L416.271 244.771C415.235 246.153 414.66 246.946 414.042 247.863L413.961 247.983C409.951 253.961 408.777 259.699 411.645 264.174C411.898 264.568 411.783 265.092 411.389 265.344C410.995 265.597 410.47 265.482 410.217 265.088C406.94 259.975 408.177 253.671 412.395 247.276L412.719 246.793C413.297 245.94 413.851 245.174 414.774 243.941L415.958 242.367C418.545 238.917 419.691 237.183 420.742 234.913L420.898 234.572C422.218 231.628 422.832 228.926 423.751 223.112L424.024 221.382C424.647 217.514 425.107 215.343 425.883 212.989L425.947 212.798C427.18 209.124 428.988 206.308 431.567 204.595Z" fill="#0B0030"/>
<path d="M353.536 188.919C363.885 184.822 374.36 186.613 378.122 192.847C379.911 195.811 380.365 199.98 379.181 203.467L379.127 203.618C380.045 204.606 380.842 205.764 381.532 207.065L381.668 207.327C382.689 209.322 383.295 211.238 383.688 213.064C383.786 213.522 383.495 213.973 383.037 214.071C382.579 214.17 382.128 213.878 382.03 213.421C381.665 211.726 381.1 209.94 380.158 208.099C379.647 207.099 379.073 206.197 378.432 205.406L378.356 205.314L378.319 205.382C378.172 205.636 378.044 205.848 377.877 206.099L377.772 206.255C377.441 206.74 377.071 207.213 376.659 207.658C375.195 209.241 373.485 210.19 371.532 210.135C369.206 210.07 366.883 208.753 366.222 206.516C365.572 204.318 366.73 201.859 368.66 200.661C369.232 200.305 369.854 200.082 370.515 199.98C371.72 199.792 372.932 199.997 374.256 200.468L374.535 200.57C374.688 200.627 374.849 200.691 375.076 200.783C375.974 201.145 376.803 201.622 377.567 202.201L377.751 202.344L377.764 202.297C378.516 199.496 378.121 196.259 376.775 193.902L376.67 193.722C373.404 188.31 363.818 186.671 354.16 190.495C353.725 190.667 353.232 190.454 353.06 190.019C352.887 189.584 353.101 189.091 353.536 188.919ZM373.774 202.095L373.688 202.065C372.606 201.68 371.65 201.518 370.776 201.654C370.334 201.723 369.928 201.869 369.555 202.1C368.233 202.921 367.431 204.624 367.848 206.036C368.27 207.462 369.915 208.395 371.58 208.441C372.963 208.48 374.251 207.765 375.414 206.507C375.765 206.128 376.084 205.72 376.371 205.3C376.564 205.017 376.693 204.806 376.85 204.535C376.922 204.409 376.992 204.281 377.058 204.151L377.119 204.028L377.061 203.976C376.33 203.34 375.532 202.825 374.661 202.447L374.442 202.355L374.024 202.189C373.937 202.155 373.857 202.126 373.774 202.095Z" fill="#0B0030"/>
<path d="M435.042 187.411C435.497 187.301 435.955 187.58 436.066 188.035C436.177 188.489 435.898 188.948 435.443 189.058C434.653 189.25 433.817 189.493 432.791 189.864C431.281 190.41 429.745 191.106 428.227 191.974C424.124 194.321 420.731 197.58 418.448 201.914C416.073 206.422 415.408 210.933 415.708 215.277C415.74 215.744 415.388 216.149 414.921 216.181C414.453 216.213 414.049 215.861 414.016 215.394C413.696 210.762 414.406 205.949 416.947 201.124C419.392 196.483 423.019 193 427.385 190.503C428.992 189.584 430.616 188.848 432.214 188.27C433.304 187.876 434.197 187.617 435.042 187.411Z" fill="#0B0030"/>
<path fill-rule="evenodd" clip-rule="evenodd" d="M423.598 330.883H382.683L383.35 319.674H422.931L423.598 330.883Z" fill="#0B0030"/>
<path fill-rule="evenodd" clip-rule="evenodd" d="M395.591 311.666C395.591 313.379 394.202 314.767 392.488 314.767C390.774 314.767 389.385 313.379 389.385 311.666C389.385 309.953 390.774 308.564 392.488 308.564C394.202 308.564 395.591 309.953 395.591 311.666Z" fill="#0B0030"/>
<path fill-rule="evenodd" clip-rule="evenodd" d="M406.243 311.666C406.243 313.379 404.854 314.767 403.141 314.767C401.427 314.767 400.037 313.379 400.037 311.666C400.037 309.953 401.427 308.564 403.141 308.564C404.854 308.564 406.243 309.953 406.243 311.666Z" fill="#0B0030"/>
<path fill-rule="evenodd" clip-rule="evenodd" d="M416.895 311.666C416.895 313.379 415.505 314.767 413.792 314.767C412.078 314.767 410.688 313.379 410.688 311.666C410.688 309.953 412.078 308.564 413.792 308.564C415.505 308.564 416.895 309.953 416.895 311.666Z" fill="#0B0030"/>
<path fill-rule="evenodd" clip-rule="evenodd" d="M395.591 359.071C395.591 360.784 394.202 362.173 392.488 362.173C390.774 362.173 389.385 360.784 389.385 359.071C389.385 357.359 390.774 355.97 392.488 355.97C394.202 355.97 395.591 357.359 395.591 359.071Z" fill="#0B0030"/>
<path fill-rule="evenodd" clip-rule="evenodd" d="M406.243 359.071C406.243 360.784 404.854 362.173 403.141 362.173C401.427 362.173 400.037 360.784 400.037 359.071C400.037 357.359 401.427 355.97 403.141 355.97C404.854 355.97 406.243 357.359 406.243 359.071Z" fill="#0B0030"/>
<path fill-rule="evenodd" clip-rule="evenodd" d="M416.895 359.071C416.895 360.784 415.505 362.173 413.792 362.173C412.078 362.173 410.688 360.784 410.688 359.071C410.688 357.359 412.078 355.97 413.792 355.97C415.505 355.97 416.895 357.359 416.895 359.071Z" fill="#0B0030"/>
<path d="M385.81 344.556C386.032 344.438 386.293 344.425 386.524 344.517L386.609 344.556L390.445 346.603L394.28 344.556C394.502 344.438 394.763 344.425 394.994 344.517L395.079 344.556L398.914 346.603L402.747 344.557C402.969 344.438 403.231 344.425 403.461 344.517L403.546 344.557L407.379 346.603L411.212 344.557C411.434 344.438 411.695 344.425 411.926 344.517L412.011 344.557L415.843 346.603L419.674 344.557C419.896 344.438 420.157 344.425 420.388 344.517L420.473 344.557L424.706 346.816C425.119 347.037 425.275 347.55 425.054 347.963C424.847 348.352 424.379 348.513 423.981 348.347L423.907 348.312L420.073 346.265L416.243 348.311C416.021 348.43 415.759 348.443 415.528 348.351L415.443 348.311L411.611 346.265L407.779 348.312C407.557 348.43 407.295 348.443 407.064 348.351L406.98 348.312L403.146 346.265L399.314 348.312C399.092 348.43 398.83 348.443 398.6 348.351L398.515 348.312L394.68 346.264L390.846 348.312C390.624 348.43 390.362 348.443 390.132 348.351L390.047 348.312L386.209 346.264L382.372 348.312C381.984 348.519 381.506 348.393 381.267 348.033L381.225 347.963C381.018 347.574 381.144 347.097 381.504 346.858L381.574 346.816L385.81 344.556Z" fill="#0B0030"/>
<path d="M388.47 294.319C388.722 294.159 389.038 294.144 389.302 294.275L389.379 294.319L392.483 296.29L395.585 294.319C395.837 294.159 396.154 294.144 396.418 294.276L396.495 294.32L399.593 296.29L402.694 294.319C402.946 294.159 403.262 294.144 403.526 294.276L403.604 294.319L406.702 296.29L409.803 294.319C410.055 294.159 410.371 294.144 410.635 294.276L410.713 294.319L413.811 296.29L416.909 294.32C417.162 294.159 417.478 294.144 417.742 294.276L417.82 294.32L421.371 296.58C421.766 296.831 421.882 297.355 421.631 297.75C421.394 298.121 420.916 298.246 420.531 298.05L420.46 298.009L417.364 296.039L414.267 298.009C414.014 298.17 413.698 298.185 413.434 298.053L413.357 298.01L410.257 296.039L407.158 298.01C406.905 298.17 406.589 298.185 406.325 298.053L406.248 298.01L403.148 296.039L400.048 298.01C399.796 298.17 399.48 298.185 399.215 298.053L399.138 298.01L396.039 296.039L392.939 298.01C392.686 298.17 392.37 298.185 392.106 298.054L392.029 298.01L388.924 296.038L385.82 298.01C385.448 298.246 384.962 298.157 384.697 297.816L384.65 297.749C384.414 297.377 384.503 296.891 384.844 296.626L384.911 296.579L388.47 294.319Z" fill="#0B0030"/>
<path fill-rule="evenodd" clip-rule="evenodd" d="M143.113 145.853C131.71 159.413 129.405 180.911 132.026 199.665C134.679 218.418 142.26 234.393 153.694 246.134C165.127 257.875 180.383 265.383 195.07 264.821C209.789 264.226 223.939 255.56 237.773 243.819C251.607 232.077 265.157 217.26 266.294 201.285C267.4 185.277 256.092 168.145 242.227 154.584C228.392 141.024 212.031 131.035 193.554 128.853C175.077 126.67 154.546 132.292 143.113 145.853Z" fill="#EE7ABB"/>
<path fill-rule="evenodd" clip-rule="evenodd" d="M98.8653 202.274C89.0093 211.926 82.0552 230.542 80.9049 250.875C79.7284 271.17 84.3297 293.219 94.1595 306.953C104.016 320.686 119.126 326.103 133.714 325.417C148.328 324.692 162.446 317.825 175.073 304.092C187.7 290.358 198.863 269.758 198.706 249.387C198.55 229.016 187.099 208.874 174.445 199.222C161.818 189.532 148.015 190.372 134.734 191.135C121.453 191.898 108.695 192.622 98.8653 202.274Z" fill="#EE7ABB"/>
<path fill-rule="evenodd" clip-rule="evenodd" d="M117.825 158.492C120.698 157.546 123.833 157.23 127.058 157.559C130.697 157.93 133.274 159.327 136.716 160.531C139.658 161.56 143.898 161.484 146.514 163.336C147.783 164.235 149.826 166.188 149.954 169.781C150.041 172.198 148.892 174.89 146.863 176.055C142.352 178.644 137.103 174.324 134.971 170.593C131.218 173.044 129.087 176.768 129.855 181.268C130.217 183.387 130.92 185.458 131.001 187.606C131.141 191.357 129.219 195.12 126.097 197.207C125.221 197.792 124.245 198.267 123.558 199.066C122.472 200.328 122.331 202.116 122.126 203.767C121.731 206.95 120.864 210.194 119.017 212.86C117.178 215.516 113.773 216.666 112.2 219.488C110.771 222.052 111.408 225.268 110.774 228.048C110.067 231.144 109.09 234.18 107.444 236.917C105.52 240.114 102.644 242.832 99.1239 244.075C95.0254 245.523 90.5403 244.671 87.3768 241.686C85.7821 240.18 84.5574 238.255 84.0242 236.129C83.3518 233.447 83.8018 230.584 84.7883 228C87.4571 221.011 96.8734 215.626 100.301 209.051C104.442 201.107 102.795 191.913 102.844 183.351C102.874 177.812 104.391 171.746 107.253 166.986C109.794 162.758 113.513 159.913 117.825 158.492Z" fill="#0B0030"/>
<path d="M144.144 176.381C143.797 176.427 143.552 176.745 143.598 177.092C144.174 181.456 144.181 185.393 143.795 189.059L143.747 189.491C143.331 193.091 142.643 194.927 141.221 196.344C140.225 197.335 139.009 197.996 137.653 198.39C136.744 198.654 136.001 198.753 135.154 198.797C132.374 198.954 129.779 197.936 127.43 196.088C127.155 195.872 126.756 195.919 126.539 196.194C126.322 196.469 126.37 196.868 126.645 197.084C129.218 199.108 132.101 200.239 135.223 200.062C136.156 200.014 136.987 199.903 138.007 199.607C139.555 199.157 140.958 198.395 142.116 197.242C143.842 195.523 144.618 193.342 145.057 189.192C145.453 185.431 145.446 181.395 144.856 176.926C144.813 176.6 144.528 176.364 144.205 176.376L144.144 176.381Z" fill="#0B0030"/>
<path d="M134.471 198.816C134.127 198.748 133.794 198.972 133.727 199.316C133.388 201.047 133.106 202.819 132.886 204.634C132.233 210.024 132.196 215.236 132.647 220.313C132.66 220.452 132.718 220.583 132.812 220.685C136.097 224.255 139.296 228.012 142.391 231.965C144.202 234.278 146.092 236.959 148.143 240.083L148.562 240.724C149.474 242.122 150.408 243.593 151.447 245.259L154.81 250.695C154.994 250.992 155.385 251.084 155.683 250.9C155.981 250.716 156.073 250.325 155.888 250.028L152.766 244.977L152.284 244.206C151.257 242.563 150.327 241.105 149.414 239.709L149.204 239.387C147.135 236.237 145.226 233.528 143.391 231.184C140.482 227.47 137.483 223.927 134.407 220.549L133.893 219.987L133.865 219.665C133.485 215.021 133.523 210.261 134.079 205.353L134.145 204.786C134.362 203.002 134.639 201.26 134.972 199.559C135.039 199.216 134.815 198.883 134.471 198.816Z" fill="#0B0030"/>
<path d="M100.927 242.443C100.578 242.411 100.269 242.668 100.238 243.017C99.6294 249.745 98.5122 256.726 96.7269 263.957C94.9564 271.137 92.7089 277.84 89.9007 284.7L89.5977 285.435C88.3454 288.456 87.2546 290.915 85.5012 294.706L82.812 300.497C81.5257 303.291 80.8773 304.786 80.2125 306.487L79.99 307.065C77.7225 313.058 77.5465 316.929 79.8312 320.131C82.1925 323.441 86.6931 325.202 92.5719 325.808C94.6731 326.024 96.8322 326.077 98.9611 326.006C100.361 325.96 101.503 325.872 102.424 325.771C104.085 325.588 105.413 325.311 106.86 324.871L107.151 324.781C107.896 324.546 110.874 323.489 111.682 323.221C113.883 322.492 116.193 321.843 119.119 321.171L119.771 321.023C124.218 320.019 126.368 319.731 130.393 319.416L130.981 319.371C132.612 319.247 133.354 319.114 134.199 318.719C134.644 318.512 135.081 318.235 135.557 317.863C137.456 316.376 138.598 314.45 139.243 311.829L139.295 311.609C139.751 309.646 139.926 307.729 140.077 303.703L140.172 300.961C140.439 293.601 140.765 289.731 141.781 284.131L141.833 283.85C143.093 276.969 144.966 270.918 147.26 265.293C147.392 264.969 147.236 264.6 146.911 264.468C146.587 264.336 146.217 264.491 146.085 264.815C143.761 270.515 141.862 276.648 140.585 283.621L140.482 284.189C139.509 289.616 139.18 293.485 138.918 300.54L138.801 303.864C138.655 307.663 138.484 309.496 138.06 311.323C137.487 313.791 136.482 315.528 134.774 316.865C134.37 317.181 134.014 317.407 133.662 317.571L133.519 317.635C132.902 317.898 132.265 318.002 130.885 318.107L130.019 318.174C126.015 318.493 123.8 318.805 119.163 319.861L118.835 319.936C116.116 320.56 113.917 321.167 111.845 321.835L111.283 322.018C110.454 322.293 107.487 323.346 106.769 323.572C105.284 324.041 103.972 324.325 102.286 324.511L101.941 324.547C101.113 324.629 100.113 324.7 98.919 324.739C96.844 324.808 94.7411 324.757 92.702 324.547C87.1516 323.975 82.9619 322.336 80.8642 319.396C78.8608 316.588 79.0499 313.052 81.2625 307.288L81.5992 306.429C82.3271 304.606 83.1228 302.829 84.8582 299.097L86.6548 295.233C88.414 291.43 89.5101 288.959 90.7698 285.92C93.743 278.747 96.1086 271.763 97.9587 264.26C99.7601 256.963 100.887 249.92 101.501 243.131C101.533 242.782 101.276 242.474 100.927 242.443Z" fill="#0B0030"/>
<path d="M135.204 316.55C135.032 316.855 135.14 317.242 135.446 317.413L149.815 325.494C167.285 335.342 171.011 337.655 177.004 342.478C177.347 342.754 177.702 343.027 178.079 343.305L178.402 343.542C178.729 343.779 179.074 344.022 179.466 344.293L181.206 345.482L181.62 345.768C184.586 347.841 186.09 349.327 187.216 351.624L187.292 351.782C187.458 352.126 187.609 352.464 187.782 352.902C188.366 354.379 188.79 356.013 188.932 357.748C189.122 360.079 188.772 362.347 187.756 364.474C186.717 366.655 185.207 368.288 183.459 369.54L183.252 369.686H108.486L108.486 346.492C108.486 346.163 108.234 345.892 107.912 345.862L107.851 345.859C107.522 345.859 107.251 346.11 107.22 346.431L107.217 346.492V370.319C107.217 370.649 107.469 370.919 107.79 370.95L107.851 370.953H183.449C183.576 370.953 183.699 370.915 183.804 370.844C185.879 369.444 187.68 367.581 188.902 365.02C190.02 362.678 190.404 360.188 190.196 357.644C190.043 355.773 189.589 354.021 188.962 352.437C188.8 352.026 188.655 351.695 188.503 351.373L188.437 351.235C187.162 348.551 185.478 346.897 182.14 344.586L180.384 343.386C179.784 342.974 179.299 342.631 178.833 342.287C178.47 342.018 178.128 341.755 177.8 341.491L177.068 340.905C171.404 336.406 167.257 333.871 150.441 324.392L136.068 316.309C135.762 316.137 135.376 316.245 135.204 316.55Z" fill="#0B0030"/>
<path d="M87.6148 323.92C87.5303 323.58 87.1862 323.373 86.8462 323.458C86.5062 323.542 86.2991 323.886 86.3836 324.226C88.0792 331.043 91.2434 336.942 96.3033 341.329L96.6416 341.617C96.7071 341.671 96.7882 341.735 96.9601 341.869C97.9236 342.584 99.3718 343.403 101.173 344.273L101.382 344.377C101.508 344.439 101.654 344.509 101.88 344.616L102.501 344.904C103.239 345.243 104.026 345.59 104.862 345.945L105.962 346.408C106.398 346.59 106.858 346.777 107.386 346.989L107.617 347.081C109.37 347.778 111.142 348.439 112.552 348.93L113.397 349.214C113.513 349.252 113.611 349.284 113.698 349.31L113.749 349.326C121.593 351.7 129.009 352.891 136.216 353.302C136.566 353.322 136.866 353.054 136.886 352.705C136.906 352.356 136.638 352.056 136.289 352.036C129.349 351.641 122.215 350.512 114.682 348.282L114.117 348.113C113.889 348.044 113.56 347.935 112.966 347.732L112.461 347.555C111.251 347.124 109.823 346.589 108.394 346.025L108.087 345.904C107.466 345.656 106.943 345.444 106.449 345.238L106.083 345.084C104.86 344.573 103.742 344.084 102.724 343.611L102.113 343.323C101.965 343.252 101.86 343.2 101.738 343.138L101.308 342.928C99.7624 342.164 98.5309 341.456 97.7291 340.861L97.4567 340.646C97.4251 340.62 97.3991 340.598 97.3683 340.572C92.391 336.354 89.2781 330.607 87.6148 323.92Z" fill="#0B0030"/>
<path d="M178.316 304.194C178.311 303.684 177.736 303.389 177.318 303.681C172.042 307.375 166.499 310.88 160.662 314.163C155.631 316.997 150.563 319.562 145.457 321.887C145.139 322.032 144.998 322.408 145.143 322.726C145.288 323.045 145.665 323.185 145.983 323.04C151.121 320.7 156.221 318.119 161.285 315.267C166.571 312.294 171.618 309.14 176.445 305.829L177.062 305.403L177.065 305.698C177.12 309.675 177.24 313.641 177.43 317.608L177.505 319.095C177.948 327.606 178.694 335.981 179.721 344.21C179.764 344.557 180.081 344.804 180.428 344.76C180.776 344.717 181.023 344.4 180.979 344.053C179.956 335.854 179.213 327.51 178.772 319.029C178.513 314.089 178.364 309.152 178.316 304.194Z" fill="#0B0030"/>
<path d="M194.037 285.979C190.481 279.251 182.31 276.897 173.615 278.782C162.066 281.28 150.588 285.382 139.839 290.834C139.527 290.992 139.402 291.374 139.56 291.686C139.719 291.998 140.101 292.122 140.413 291.964C151.067 286.561 162.441 282.495 173.884 280.021C182.081 278.243 189.669 280.43 192.916 286.571C194.353 289.289 195.056 292.412 195.437 296.794C196.156 305.037 196.45 312.666 196.274 319.918L196.097 326.53C196.029 329.212 195.994 331.062 195.967 333.232L195.953 334.54C195.925 337.774 195.943 340.745 196.014 343.609L196.026 344.034L181.141 344.034C180.811 344.034 180.541 344.285 180.51 344.607L180.507 344.668C180.507 344.997 180.758 345.268 181.08 345.299L181.141 345.301H196.678C197.036 345.301 197.323 345.006 197.312 344.649C197.211 341.269 197.187 337.765 197.229 333.867L197.268 331.043C197.297 329.325 197.338 327.549 197.403 325.069L197.523 320.677C197.739 313.158 197.448 305.247 196.701 296.685L196.645 296.074C196.238 291.852 195.501 288.746 194.037 285.979Z" fill="#0B0030"/>
<path d="M196.423 344.389C196.282 344.099 195.94 343.959 195.631 344.074C195.322 344.19 195.157 344.52 195.241 344.832L195.259 344.888L200.069 357.709C200.122 357.854 200.225 357.974 200.359 358.048L200.418 358.077L217.752 365.419C219.472 366.148 220.614 367.787 220.712 369.634L220.714 369.686L180.351 369.686C180.021 369.686 179.75 369.937 179.719 370.258L179.716 370.319C179.716 370.649 179.968 370.92 180.29 370.95L180.351 370.953H221.353C221.683 370.953 221.954 370.702 221.984 370.38L221.987 370.319V369.893C221.987 367.48 220.572 365.299 218.377 364.309L218.247 364.252L201.165 357.017L199.331 352.141L196.447 344.444L196.423 344.389Z" fill="#0B0030"/>
<path d="M201.09 356.829C200.996 356.492 200.646 356.295 200.308 356.389C198.851 356.795 197.326 357.083 195.747 357.23C193.655 357.424 191.62 357.357 189.656 357.069C189.31 357.018 188.987 357.258 188.937 357.604C188.886 357.951 189.126 358.272 189.472 358.323C191.533 358.625 193.669 358.696 195.865 358.492C197.521 358.338 199.121 358.036 200.649 357.609C200.987 357.515 201.184 357.166 201.09 356.829Z" fill="#0B0030"/>
<path d="M106.35 345.294C106.143 345.011 105.746 344.95 105.463 345.157C103.621 346.508 101.818 347.895 99.9436 349.399L99.3788 349.854C98.0723 350.91 96.7624 351.995 95.1989 353.31L91.4291 356.493C82.2358 364.251 80.7582 365.407 74.899 369.611C74.3984 369.97 74.6527 370.759 75.269 370.759L77.6937 370.764C79.2251 370.773 80.3282 370.791 81.5108 370.824L83.5731 370.886C85.0268 370.928 86.2841 370.947 88.3278 370.952L89.6084 370.953C91.4375 370.953 92.6905 370.003 94.207 367.994L94.3858 367.754C94.5739 367.497 94.9549 366.973 95.041 366.856C97.1618 363.993 100.177 362.051 104.468 360.477L104.957 360.302C105.079 360.259 105.204 360.216 105.346 360.169L106.893 359.658C107.366 359.499 107.716 359.374 108.081 359.233C108.408 359.107 108.57 358.74 108.443 358.413C108.317 358.087 107.949 357.925 107.623 358.051L107.434 358.123C107.088 358.254 106.727 358.379 106.219 358.547L104.937 358.969C104.703 359.047 104.514 359.113 104.309 359.186C99.75 360.822 96.4886 362.865 94.1596 365.918L93.9192 366.242C93.7534 366.469 93.4618 366.87 93.3309 367.047L93.2994 367.09C91.9527 368.904 90.9578 369.686 89.6084 369.686L87.5413 369.682C85.8572 369.673 84.7209 369.653 83.3754 369.613L81.7692 369.563C80.5983 369.529 79.5328 369.51 78.1036 369.5L77.23 369.495L78.7136 368.415C82.3284 365.763 84.7197 363.811 91.6735 357.946L95.7534 354.501C97.3402 353.164 98.6594 352.069 99.9601 351.015L100.177 350.839C102.241 349.171 104.204 347.652 106.214 346.179C106.496 345.972 106.557 345.576 106.35 345.294Z" fill="#0B0030"/>
<path d="M87.5999 369.686C87.2496 369.686 86.9656 369.97 86.9656 370.32C86.9656 370.649 87.2172 370.92 87.5388 370.951L87.5999 370.953H107.852C108.202 370.953 108.486 370.67 108.486 370.32C108.486 369.99 108.235 369.72 107.913 369.689L107.852 369.686H87.5999Z" fill="#0B0030"/>
<path d="M148.669 246.588C148.38 246.391 147.985 246.465 147.787 246.754C146.122 249.187 144.59 251.791 143.221 254.594C141.919 257.256 140.927 259.697 140.083 262.261C139.973 262.594 140.154 262.952 140.487 263.061C140.82 263.171 141.178 262.99 141.288 262.657C142.114 260.148 143.084 257.76 144.361 255.15C145.702 252.404 147.203 249.853 148.835 247.469C149.032 247.18 148.958 246.786 148.669 246.588Z" fill="#0B0030"/>
<path d="M227.566 213.828C228.809 212.056 226.654 209.761 224.859 211.005C224.786 211.055 224.717 211.11 224.656 211.168C221.736 213.875 219.268 217.065 217.381 220.569L217.121 221.061C216.588 222.08 216.111 223.095 215.415 224.664L214.444 226.873C212.225 231.89 210.932 234.17 208.747 236.409L208.635 236.522C206.379 238.801 203.65 240.678 199.399 243.063L198.548 243.537C197.838 243.928 195.107 245.409 194.464 245.763L193.973 246.034C193.735 246.166 193.508 246.294 193.287 246.419L191.32 247.542C190.607 247.943 189.88 248.343 188.779 248.938L184.456 251.264C179.956 253.695 177.367 255.213 174.511 257.171C173.036 258.182 171.141 258.32 169.551 257.536L169.419 257.469L137.992 241.042C137.682 240.879 137.299 240.999 137.136 241.309C136.983 241.601 137.081 241.958 137.351 242.134L137.404 242.165L168.827 258.59C170.859 259.669 173.325 259.522 175.229 258.216L175.733 257.873C178.354 256.105 180.867 254.644 185.064 252.376L189.858 249.795C190.86 249.252 191.541 248.874 192.263 248.465L193.698 247.643C194.052 247.441 194.426 247.232 194.83 247.009L196.553 246.067C197.553 245.523 198.727 244.885 199.161 244.646L199.745 244.322C204.25 241.81 207.129 239.846 209.537 237.414L209.769 237.176C212.022 234.836 213.361 232.458 215.604 227.388L216.488 225.375C217.305 223.527 217.814 222.45 218.434 221.29L218.499 221.17C220.257 217.905 222.538 214.922 225.231 212.367L225.521 212.095C225.536 212.08 225.555 212.065 225.579 212.049C226.189 211.626 226.974 212.463 226.527 213.101L226.395 213.288C226.334 213.372 226.269 213.46 226.195 213.56L225.636 214.304C224.866 215.337 224.5 215.916 224.176 216.698L224.058 216.989C223.289 218.927 222.904 220.811 222.498 224.047L222.286 225.798C221.563 231.689 220.794 234.271 218.444 236.899L218.341 237.014C216.921 238.573 215.44 239.719 212.616 241.57L210.922 242.669L210.582 242.893C208.831 244.051 207.203 245.281 204.803 247.213L202.757 248.868C195.874 254.437 189.247 259.882 182.817 265.256L180.791 266.952C178.443 268.922 176.15 270.859 173.903 272.773C172.528 273.944 170.628 274.266 168.954 273.62L168.822 273.567L135.566 259.625C135.243 259.49 134.871 259.641 134.736 259.964C134.608 260.268 134.735 260.615 135.02 260.767L135.075 260.794L168.331 274.736C170.479 275.637 172.95 275.25 174.726 273.738C177.612 271.279 180.574 268.782 183.631 266.228C189.654 261.195 195.851 256.098 202.269 250.895L205.596 248.202C207.968 246.293 209.57 245.082 211.282 243.95L213.324 242.622C216.227 240.719 217.77 239.524 219.28 237.867C220.809 236.188 221.821 234.244 222.489 231.903L222.593 231.531C222.968 230.138 223.187 228.843 223.476 226.521L223.726 224.446C224.141 221.087 224.518 219.23 225.291 217.323L225.348 217.183C225.61 216.551 225.92 216.051 226.573 215.17L227.24 214.281C227.364 214.113 227.464 213.975 227.566 213.828Z" fill="#0B0030"/>
<path d="M118.859 213.57C118.597 213.338 118.196 213.362 117.964 213.623C117.732 213.885 117.756 214.286 118.018 214.518C119.67 215.981 121.949 217.441 124.678 218.766L124.978 218.91C127.212 219.956 129.085 220.369 132.916 220.771C133.264 220.807 133.576 220.555 133.613 220.207C133.649 219.858 133.396 219.547 133.048 219.51L132.333 219.433C129.035 219.06 127.382 218.654 125.374 217.695L125.233 217.627C122.602 216.348 120.418 214.95 118.859 213.57Z" fill="#0B0030"/>
<path d="M305.806 237.144L317.135 276.243C317.232 276.579 317.039 276.931 316.702 277.028L277.564 288.345C277.228 288.443 276.876 288.249 276.778 287.913L265.45 248.814C265.353 248.477 265.546 248.126 265.883 248.029L305.021 236.712C305.357 236.614 305.709 236.808 305.806 237.144ZM304.765 238.105L266.845 249.07L277.821 286.951L315.74 275.986L304.765 238.105Z" fill="#0B0030"/>
<path d="M299.513 255.036C299.227 254.881 298.874 254.969 298.692 255.23L298.659 255.281L292.227 266.645C292.055 266.95 292.162 267.336 292.467 267.509C292.754 267.671 293.114 267.585 293.299 267.321L293.331 267.269L299.458 256.446L312.28 263.368C312.57 263.524 312.928 263.432 313.108 263.164L313.139 263.111C313.296 262.822 313.204 262.464 312.935 262.284L312.883 262.253L299.513 255.036Z" fill="#0B0030"/>
<path d="M285.328 262.216C285.042 262.061 284.689 262.149 284.507 262.41L284.475 262.461L277.635 274.542C277.463 274.846 277.57 275.233 277.875 275.405C278.162 275.567 278.522 275.482 278.707 275.217L278.74 275.166L285.273 263.626L304.761 274.146C305.051 274.303 305.409 274.211 305.589 273.942L305.621 273.89C305.778 273.6 305.685 273.243 305.417 273.063L305.364 273.031L285.328 262.216Z" fill="#0B0030"/>
<path fill-rule="evenodd" clip-rule="evenodd" d="M275.365 255.995C275.923 257.92 277.938 259.029 279.865 258.472C281.793 257.915 282.903 255.902 282.345 253.976C281.787 252.051 279.772 250.941 277.845 251.498C275.917 252.056 274.807 254.069 275.365 255.995Z" fill="#0B0030"/>
<path d="M226.075 168.727C225.756 168.643 225.43 168.818 225.318 169.121L225.3 169.179L212.761 216.847C212.672 217.186 212.875 217.532 213.214 217.621C213.532 217.705 213.858 217.531 213.97 217.228L213.988 217.17L226.366 170.113L272.855 182.318L260.638 228.761L230.677 220.896C230.359 220.812 230.033 220.986 229.921 221.289L229.903 221.348C229.819 221.666 229.993 221.992 230.297 222.103L230.355 222.121L260.929 230.148C261.248 230.232 261.574 230.057 261.686 229.754L261.704 229.696L274.243 182.027C274.326 181.709 274.152 181.383 273.849 181.272L273.79 181.253L226.075 168.727Z" fill="#0B0030"/>
<path d="M252.522 192.134L247.763 210.227C247.639 210.699 247.05 210.86 246.704 210.517L233.398 197.352C233.051 197.009 233.206 196.419 233.677 196.291L251.742 191.361C252.213 191.233 252.647 191.662 252.522 192.134ZM251.017 192.873L235.071 197.224L246.816 208.844L251.017 192.873Z" fill="#0B0030"/>
<path fill-rule="evenodd" clip-rule="evenodd" d="M292.313 208.208C292.313 212.672 295.936 216.292 300.405 216.292C304.874 216.292 308.497 212.672 308.497 208.208C308.497 203.743 304.874 200.124 300.405 200.124C295.936 200.124 292.313 203.743 292.313 208.208Z" fill="#0B0030"/>
<path fill-rule="evenodd" clip-rule="evenodd" d="M230.656 265.443C230.656 268.331 232.999 270.672 235.89 270.672C238.78 270.672 241.124 268.331 241.124 265.443C241.124 262.555 238.78 260.214 235.89 260.214C232.999 260.214 230.656 262.555 230.656 265.443Z" fill="#0B0030"/>
<path fill-rule="evenodd" clip-rule="evenodd" d="M179.533 195.006C179.533 198.371 182.264 201.098 185.632 201.098C188.999 201.098 191.729 198.371 191.729 195.006C191.729 191.641 188.999 188.914 185.632 188.914C182.264 188.914 179.533 191.641 179.533 195.006Z" fill="#0B0030"/>
<path d="M204.918 268.47C204.626 268.318 204.269 268.416 204.093 268.687L204.063 268.74L200.045 276.444C199.883 276.755 200.004 277.137 200.315 277.299C200.607 277.451 200.964 277.353 201.14 277.083L201.17 277.03L204.895 269.887L232.078 284.034L217.918 311.191L205.654 304.808C205.361 304.656 205.005 304.754 204.829 305.025L204.798 305.078C204.646 305.37 204.744 305.726 205.015 305.902L205.067 305.932L217.895 312.608C218.187 312.76 218.544 312.662 218.719 312.391L218.75 312.338L233.496 284.057C233.649 283.765 233.551 283.409 233.28 283.233L233.227 283.202L204.918 268.47Z" fill="#0B0030"/>
<path d="M220.495 290.634C220.202 290.482 219.846 290.58 219.67 290.851L219.639 290.904L216.424 297.07C216.262 297.38 216.383 297.763 216.693 297.925C216.986 298.077 217.342 297.979 217.518 297.708L217.549 297.655L220.764 291.489C220.926 291.179 220.805 290.796 220.495 290.634Z" fill="#0B0030"/>
<path d="M218.151 286.367C217.858 286.215 217.502 286.312 217.326 286.583L217.295 286.636L211.58 297.598C211.418 297.908 211.538 298.291 211.849 298.452C212.141 298.605 212.498 298.507 212.674 298.236L212.705 298.183L218.42 287.222C218.582 286.911 218.461 286.528 218.151 286.367Z" fill="#0B0030"/>
<path d="M213.307 286.894C213.015 286.742 212.658 286.84 212.482 287.111L212.451 287.163L209.236 293.329C209.074 293.64 209.195 294.022 209.506 294.184C209.798 294.336 210.155 294.238 210.331 293.967L210.361 293.915L213.577 287.749C213.738 287.438 213.618 287.056 213.307 286.894Z" fill="#0B0030"/>
<path d="M210.963 282.626C210.671 282.473 210.314 282.571 210.138 282.842L210.108 282.895L204.392 293.856C204.23 294.167 204.351 294.55 204.662 294.711C204.954 294.863 205.311 294.766 205.486 294.495L205.517 294.442L211.233 283.48C211.395 283.17 211.274 282.787 210.963 282.626Z" fill="#0B0030"/>
<path d="M206.119 283.154C205.826 283.002 205.47 283.1 205.294 283.37L205.263 283.423L202.048 289.589C201.886 289.9 202.007 290.282 202.317 290.444C202.61 290.596 202.966 290.498 203.142 290.228L203.173 290.175L206.388 284.009C206.55 283.698 206.429 283.316 206.119 283.154Z" fill="#0B0030"/>
<path fill-rule="evenodd" clip-rule="evenodd" d="M183.449 370.32H221.352V369.893C221.352 367.688 220.032 365.698 217.998 364.836L200.664 357.494C200.609 357.341 200.546 357.177 200.478 357C199.1 357.384 197.531 357.701 195.805 357.861C193.488 358.077 191.382 357.963 189.564 357.697C189.737 359.821 189.504 362.284 188.329 364.747C186.916 367.709 184.713 369.466 183.449 370.32Z" fill="#0B0030"/>
<path fill-rule="evenodd" clip-rule="evenodd" d="M75.2687 370.125C83.7935 370.125 81.5104 370.32 89.6081 370.32C91.9508 370.32 93.3003 368.144 94.5309 366.479C97.0343 363.1 100.637 361.177 104.524 359.783C105.619 359.39 106.761 359.065 107.852 358.642V346.493C107.196 346.23 106.519 345.956 105.838 345.668C95.1863 353.476 88.3314 360.755 75.2687 370.125Z" fill="#0B0030"/>
<path d="M244.403 319.142H325.89C326.24 319.142 326.524 319.425 326.524 319.775V370.32C326.524 370.67 326.24 370.953 325.89 370.953H244.403C244.052 370.953 243.768 370.67 243.768 370.32V319.775C243.768 319.425 244.052 319.142 244.403 319.142ZM245.037 320.409V369.686H325.256V320.409H245.037Z" fill="#0B0030"/>
<path d="M300.405 319.142C300.075 319.142 299.804 319.393 299.773 319.715L299.77 319.776V370.32C299.77 370.67 300.054 370.953 300.405 370.953C300.734 370.953 301.005 370.702 301.036 370.381L301.039 370.32V319.776C301.039 319.426 300.755 319.142 300.405 319.142Z" fill="#0B0030"/>
<path d="M308.863 304.809H334.347C334.838 304.809 335.143 305.342 334.894 305.765L326.436 320.097C326.322 320.291 326.114 320.409 325.89 320.409H300.405C299.914 320.409 299.609 319.876 299.859 319.454L308.316 305.121C308.43 304.928 308.638 304.809 308.863 304.809ZM309.225 306.076L301.515 319.142H325.528L333.237 306.076H309.225Z" fill="#0B0030"/>
<path d="M235.994 304.809H261.478C261.703 304.809 261.911 304.928 262.025 305.121L270.482 319.454C270.732 319.876 270.427 320.409 269.936 320.409H244.452C244.227 320.409 244.019 320.291 243.905 320.097L235.448 305.765C235.198 305.342 235.503 304.809 235.994 304.809ZM237.105 306.076L244.814 319.142H268.826L261.116 306.076H237.105Z" fill="#0B0030"/>
<path fill-rule="evenodd" clip-rule="evenodd" d="M325.89 370.319H300.405V319.775H325.89V370.319Z" fill="#0B0030"/>
<path d="M267.344 319.143H278.188C278.538 319.143 278.822 319.426 278.822 319.776V331.95L278.82 332.004C278.784 332.434 278.33 332.709 277.927 332.527L272.766 330.196L267.606 332.527C267.186 332.717 266.71 332.41 266.71 331.95V319.776C266.71 319.426 266.994 319.143 267.344 319.143ZM267.979 320.41V330.968L272.505 328.923L272.568 328.899C272.718 328.849 272.882 328.857 273.028 328.923L277.554 330.968V320.41H267.979Z" fill="#0B0030"/>
<path d="M267.344 357.341H278.188C278.538 357.341 278.822 357.625 278.822 357.975V370.148C278.822 370.498 278.538 370.782 278.188 370.782H267.344C266.994 370.782 266.71 370.498 266.71 370.148V357.975C266.71 357.625 266.994 357.341 267.344 357.341ZM267.979 358.608V369.514H277.554V358.608H267.979Z" fill="#0B0030"/>
<path fill-rule="evenodd" clip-rule="evenodd" d="M134.35 199.438C133.259 199.394 131.63 199.238 129.941 198.384C128.449 197.63 126.736 196.072 125.883 195.464C125.883 196.845 126.638 199.446 128.15 201.309C130.173 203.804 132.694 204.592 133.413 204.785C133.763 202.59 133.554 203.76 133.791 202.444C134.011 201.214 134.019 200.931 134.35 199.438Z" fill="#0B0030"/>
<path d="M126.251 194.948L126.397 195.057C126.852 195.405 127.968 196.299 128.239 196.506C128.644 196.816 129.01 197.08 129.354 197.306C129.668 197.512 129.959 197.683 130.227 197.819C131.542 198.484 132.834 198.742 134.374 198.804C134.769 198.82 135.054 199.189 134.968 199.574L134.838 200.18C134.762 200.544 134.705 200.844 134.649 201.171L134.49 202.126L134.272 203.374L134.213 203.773C134.174 204.032 134.118 204.39 134.039 204.884C133.98 205.256 133.612 205.494 133.248 205.397C131.35 204.887 129.344 203.789 127.656 201.708C126.21 199.926 125.248 197.236 125.248 195.464C125.248 194.948 125.831 194.649 126.251 194.948ZM126.718 196.922L126.755 197.069C127.095 198.366 127.773 199.839 128.642 200.91C129.491 201.957 130.49 202.76 131.575 203.354L131.758 203.453C132.123 203.643 132.469 203.796 132.797 203.92L132.901 203.958L133.041 203.033L133.203 202.119L133.399 200.956C133.437 200.733 133.476 200.521 133.52 200.296L133.575 200.024L133.454 200.013C132.108 199.886 130.896 199.578 129.654 198.95C129.34 198.791 129.008 198.596 128.657 198.365C128.338 198.155 128.006 197.919 127.648 197.65L127.344 197.417L126.718 196.922Z" fill="#0B0030"/>
<path d="M1.01232 295.131H50.7006C51.051 295.131 51.335 295.415 51.335 295.765V370.647C51.335 370.997 51.051 371.281 50.7006 371.281H1.01232C0.661999 371.281 0.378004 370.997 0.378004 370.647V295.765C0.378004 295.415 0.661999 295.131 1.01232 295.131ZM1.64664 296.398V370.013H50.0663V296.398H1.64664Z" fill="#0B0030"/>
<path fill-rule="evenodd" clip-rule="evenodd" d="M50.7002 348.993H1.01182V337.741H50.7002V348.993Z" fill="#0B0030"/>
<path fill-rule="evenodd" clip-rule="evenodd" d="M50.7002 328.671H1.01182V317.419H50.7002V328.671Z" fill="#0B0030"/>
<path fill-rule="evenodd" clip-rule="evenodd" d="M39.4588 359.82C39.4588 361.357 40.7059 362.603 42.2448 362.603C43.7832 362.603 45.0303 361.357 45.0303 359.82C45.0303 358.283 43.7832 357.038 42.2448 357.038C40.7059 357.038 39.4588 358.283 39.4588 359.82Z" fill="#0B0030"/>
<path fill-rule="evenodd" clip-rule="evenodd" d="M28.534 359.82C28.534 361.357 29.7811 362.603 31.3199 362.603C32.8584 362.603 34.1055 361.357 34.1055 359.82C34.1055 358.283 32.8584 357.038 31.3199 357.038C29.7811 357.038 28.534 358.283 28.534 359.82Z" fill="#0B0030"/>
<path fill-rule="evenodd" clip-rule="evenodd" d="M17.6083 359.82C17.6083 361.357 18.8553 362.603 20.3942 362.603C21.9326 362.603 23.1797 361.357 23.1797 359.82C23.1797 358.283 21.9326 357.038 20.3942 357.038C18.8553 357.038 17.6083 358.283 17.6083 359.82Z" fill="#0B0030"/>
<path fill-rule="evenodd" clip-rule="evenodd" d="M6.68341 359.82C6.68341 361.357 7.93049 362.603 9.46936 362.603C11.0078 362.603 12.2549 361.357 12.2549 359.82C12.2549 358.283 11.0078 357.038 9.46936 357.038C7.93049 357.038 6.68341 358.283 6.68341 359.82Z" fill="#0B0030"/>
<path fill-rule="evenodd" clip-rule="evenodd" d="M39.4588 306.592C39.4588 308.129 40.7059 309.375 42.2448 309.375C43.7832 309.375 45.0303 308.129 45.0303 306.592C45.0303 305.054 43.7832 303.809 42.2448 303.809C40.7059 303.809 39.4588 305.054 39.4588 306.592Z" fill="#0B0030"/>
<path fill-rule="evenodd" clip-rule="evenodd" d="M28.534 306.592C28.534 308.129 29.7811 309.375 31.3199 309.375C32.8584 309.375 34.1055 308.129 34.1055 306.592C34.1055 305.054 32.8584 303.809 31.3199 303.809C29.7811 303.809 28.534 305.054 28.534 306.592Z" fill="#0B0030"/>
<path fill-rule="evenodd" clip-rule="evenodd" d="M17.6083 306.592C17.6083 308.129 18.8553 309.375 20.3942 309.375C21.9326 309.375 23.1797 308.129 23.1797 306.592C23.1797 305.054 21.9326 303.809 20.3942 303.809C18.8553 303.809 17.6083 305.054 17.6083 306.592Z" fill="#0B0030"/>
<path fill-rule="evenodd" clip-rule="evenodd" d="M6.68341 306.592C6.68341 308.129 7.93049 309.375 9.46936 309.375C11.0078 309.375 12.2549 308.129 12.2549 306.592C12.2549 305.054 11.0078 303.809 9.46936 303.809C7.93049 303.809 6.68341 305.054 6.68341 306.592Z" fill="#0B0030"/>
<path fill-rule="evenodd" clip-rule="evenodd" d="M26.1367 233.015C24.9679 229.952 23.5677 226.978 21.938 224.133C20.3949 221.439 18.7346 218.67 16.468 216.518C14.593 214.737 10.8268 212.225 8.09457 213.402C6.5591 214.063 6.02162 215.936 6.04192 217.473C6.10281 221.978 10.168 225.446 13.6478 227.712C16.6266 229.653 19.9661 231.24 23.3647 232.278C23.7136 232.385 26.0462 232.777 26.1367 233.015Z" fill="#0B0030"/>
<path fill-rule="evenodd" clip-rule="evenodd" d="M26.1367 262.87C24.8118 259.399 23.2243 256.027 21.3772 252.802C19.6278 249.748 17.7459 246.61 15.1765 244.17C13.0515 242.152 8.78173 239.304 5.6854 240.638C3.94441 241.387 3.33504 243.511 3.35872 245.253C3.42722 250.36 8.03535 254.291 11.9795 256.86C15.3562 259.059 19.1423 260.858 22.9947 262.035C23.3901 262.157 26.034 262.601 26.1367 262.87Z" fill="#0B0030"/>
<path fill-rule="evenodd" clip-rule="evenodd" d="M25.5764 262.87C26.9017 259.399 28.4892 256.027 30.3364 252.802C32.0858 249.748 33.9676 246.61 36.5366 244.17C38.662 242.152 42.9314 239.304 46.0281 240.638C47.7687 241.387 48.3781 243.511 48.3548 245.253C48.2859 250.36 43.6782 254.291 39.734 256.86C36.3569 259.059 32.5713 260.858 28.7184 262.035C28.3234 262.157 25.6792 262.601 25.5764 262.87Z" fill="#0B0030"/>
<path fill-rule="evenodd" clip-rule="evenodd" d="M26.1367 285.413C24.8118 281.942 23.2243 278.571 21.3772 275.346C19.6278 272.292 17.7459 269.154 15.1765 266.713C13.0515 264.695 8.78173 261.847 5.6854 263.182C3.94441 263.931 3.33504 266.054 3.35872 267.796C3.42722 272.903 8.03535 276.834 11.9795 279.403C15.3562 281.603 19.1423 283.401 22.9947 284.578C23.3901 284.7 26.034 285.144 26.1367 285.413Z" fill="#0B0030"/>
<path fill-rule="evenodd" clip-rule="evenodd" d="M25.5764 285.413C26.9017 281.942 28.4892 278.571 30.3364 275.346C32.0858 272.292 33.9676 269.154 36.5366 266.713C38.662 264.695 42.9314 261.847 46.0281 263.182C47.7687 263.931 48.3781 266.054 48.3548 267.796C48.2859 272.903 43.6782 276.834 39.734 279.403C36.3569 281.603 32.5713 283.401 28.7184 284.578C28.3234 284.7 25.6792 285.144 25.5764 285.413Z" fill="#0B0030"/>
<path fill-rule="evenodd" clip-rule="evenodd" d="M26.137 241.851C27.2399 238.961 28.5614 236.154 30.0994 233.469C31.5558 230.927 33.123 228.314 35.2619 226.282C37.0312 224.603 40.5855 222.232 43.1638 223.342C44.6126 223.967 45.1205 225.734 45.101 227.184C45.0435 231.436 41.2072 234.709 37.9235 236.847C35.1122 238.679 31.9605 240.176 28.7529 241.156C28.4239 241.257 26.2224 241.627 26.137 241.851Z" fill="#0B0030"/>
<path d="M26.1372 210.986C25.8075 210.986 25.5365 211.238 25.5058 211.559L25.5029 211.62V295.794C25.5029 296.144 25.7869 296.428 26.1372 296.428C26.4669 296.428 26.7378 296.176 26.7686 295.855L26.7715 295.794V211.62C26.7715 211.27 26.4875 210.986 26.1372 210.986Z" fill="#0B0030"/>
</svg>
