<svg width="146" height="107" viewBox="0 0 146 107" fill="none" xmlns="http://www.w3.org/2000/svg">
<path d="M91.6663 0H143.333C149.777 0 155 5.14838 155 11.5C155 17.8511 149.776 23 143.333 23H91.6663C85.2235 23 80 17.851 80 11.5C80 5.14851 85.2232 0 91.6663 0ZM143.333 2.28962H91.6663C86.506 2.28962 82.3227 6.41306 82.3227 11.5C82.3227 16.5864 86.5063 20.7104 91.6663 20.7104H143.333C148.494 20.7104 152.677 16.5865 152.677 11.5C152.677 6.41296 148.494 2.28962 143.333 2.28962Z" fill="black"/>
<path fill-rule="evenodd" clip-rule="evenodd" d="M40.2895 22H56.7105C62.3929 22 67 17.2987 67 11.5C67 5.70054 62.3929 1 56.7105 1H40.2895C34.6063 1 30 5.70054 30 11.5C30 17.2987 34.6063 22 40.2895 22Z" fill="black"/>
<path d="M39.638 0H56.362C62.7894 0 68 5.14851 68 11.5C68 17.851 62.7892 23 56.362 23H39.638C33.2103 23 28 17.8512 28 11.5C28 5.14826 33.21 0 39.638 0ZM56.362 2.28962H39.638C34.4897 2.28962 30.3171 6.41278 30.3171 11.5C30.3171 16.5867 34.49 20.7104 39.638 20.7104H56.362C61.5095 20.7104 65.6829 16.5864 65.6829 11.5C65.6829 6.41306 61.5098 2.28962 56.362 2.28962Z" fill="black"/>
<path fill-rule="evenodd" clip-rule="evenodd" d="M70.4391 106H143.561C149.326 106 154 101.299 154 95.5008C154 89.7005 149.326 85 143.561 85H70.4391C64.6741 85 60 89.7005 60 95.5008C60 101.299 64.6741 106 70.4391 106Z" fill="black"/>
<path d="M69.6765 83H143.323C149.772 83 155 88.3725 155 95.0008C155 101.628 149.772 107 143.323 107H69.6765C63.2279 107 58 101.628 58 95.0008C58 88.3725 63.2277 83 69.6765 83ZM143.323 85.3892H69.6765C64.5116 85.3892 60.3248 89.692 60.3248 95.0008C60.3248 100.308 64.5118 104.611 69.6765 104.611H143.323C148.488 104.611 152.675 100.308 152.675 95.0008C152.675 89.692 148.488 85.3892 143.323 85.3892Z" fill="black"/>
<path d="M11.5089 41H76.4911C82.8477 41 88 46.3721 88 53C88 59.6279 82.8477 65 76.4911 65H11.5089C5.15275 65 0 59.6276 0 53C0 46.3724 5.15275 41 11.5089 41ZM76.4911 43.3892H11.5089C6.41822 43.3892 2.29139 47.6919 2.29139 53C2.29139 58.3081 6.41822 62.6108 11.5089 62.6108H76.4911C81.5822 62.6108 85.7086 58.3084 85.7086 53C85.7086 47.6916 81.5822 43.3892 76.4911 43.3892Z" fill="black"/>
<path fill-rule="evenodd" clip-rule="evenodd" d="M114.508 64H145.491C151.295 64 156 59.2995 156 53.5C156 47.7006 151.295 43 145.491 43H114.508C108.705 43 104 47.7006 104 53.5C104 59.2995 108.705 64 114.508 64Z" fill="black"/>
<path d="M114.601 41H145.398C151.806 41 157 46.3724 157 53C157 59.6276 151.806 65 145.398 65H114.601C108.194 65 103 59.6278 103 53C103 46.3722 108.194 41 114.601 41ZM145.398 43.3892H114.601C109.469 43.3892 105.31 47.6917 105.31 53C105.31 58.3083 109.469 62.6108 114.601 62.6108H145.398C150.53 62.6108 154.69 58.3081 154.69 53C154.69 47.6919 150.53 43.3892 145.398 43.3892Z" fill="black"/>
</svg>
