<svg width="448" height="370" viewBox="0 0 448 370" fill="none" xmlns="http://www.w3.org/2000/svg">
<path fill-rule="evenodd" clip-rule="evenodd" d="M311.682 51.7913C330.559 70.71 343.268 95.8548 353.212 123.72C363.156 151.584 370.227 182.048 366.718 213.056C363.209 244.124 349.064 275.616 326.677 290.727C304.462 305.627 274.116 304.473 245.598 301.458L244.734 301.365C215.966 298.282 189.219 293.386 164.759 279.061C140.352 264.736 118.231 240.86 112.7 212.996C107.278 185.35 118.116 153.676 130.51 126.184L130.886 125.352C143.383 97.6681 157.314 74.2762 176.192 55.3572C195.069 36.4385 218.891 21.9923 243.352 21.0856C267.759 20.179 292.751 32.8723 311.682 51.7913ZM242.145 101.945L240.556 102.117C228.522 103.459 217.314 105.635 207.036 111.634C196.444 117.831 186.845 128.157 184.445 140.209C182.121 152.016 186.678 165.522 191.971 177.307L192.336 178.117C197.759 190.091 203.806 200.208 211.997 208.391C220.189 216.574 230.527 222.823 241.143 223.214C251.735 223.607 262.58 218.117 270.795 209.934C278.855 201.883 284.323 191.225 288.608 179.405L288.818 178.823C293.132 166.771 296.202 153.595 294.679 140.183C293.156 126.745 287.018 113.124 277.302 106.588C267.669 100.149 254.513 100.643 242.145 101.945Z" fill="#EE7ABB"/>
<path d="M191.506 241.565C192.143 241.565 192.666 242.058 192.712 242.683L192.715 242.774V251.053C192.715 251.721 192.174 252.261 191.506 252.261C190.868 252.261 190.346 251.768 190.3 251.143L190.297 251.053V242.774C190.297 242.106 190.838 241.565 191.506 241.565Z" fill="black"/>
<path fill-rule="evenodd" clip-rule="evenodd" d="M140.199 272.932H300.588V250.22H140.199V272.932Z" fill="black"/>
<path fill-rule="evenodd" clip-rule="evenodd" d="M279.443 132.459H375.617V109.747H279.443V132.459Z" fill="black"/>
<path d="M341.352 81.2002C341.812 81.2002 342.199 81.5447 342.253 82.0011C342.714 85.9372 342.613 90.0299 341.725 94.2997C340.031 102.436 336.132 108.732 331.19 113.789C330.84 114.148 330.266 114.154 329.908 113.804C329.549 113.454 329.543 112.88 329.893 112.522C334.614 107.691 338.336 101.681 339.949 93.9297C340.728 90.1895 340.871 86.59 340.546 83.1157L340.536 83.0135H295.926L295.916 83.1151C295.605 86.4353 295.723 89.8751 296.415 93.4426L296.513 93.9297C298.127 101.681 301.848 107.691 306.57 112.522C306.92 112.88 306.913 113.454 306.555 113.804C306.196 114.154 305.622 114.148 305.272 113.789C300.329 108.732 296.431 102.436 294.737 94.2997C293.848 90.0281 293.747 85.9324 294.21 82.0011C294.26 81.5731 294.603 81.2437 295.025 81.2044L295.111 81.2002H341.352Z" fill="black"/>
<path d="M290.174 50.7133C291.488 49.036 293.393 49.2874 295.217 50.6492C301.566 55.3899 306.384 63.5976 310.076 74.0871C310.946 76.5677 311.724 79.1698 312.398 81.8916C312.518 82.3782 312.222 82.8696 311.736 82.9899C311.25 83.1102 310.758 82.8134 310.637 82.3274C309.977 79.6612 309.216 77.1135 308.365 74.6879C304.782 64.5091 300.126 56.5788 294.132 52.1023C292.994 51.2525 292.144 51.1407 291.603 51.8303C291.318 52.1954 291.14 52.6923 290.991 53.4738C290.438 56.3552 290.723 59.5303 291.722 62.9001C292.836 66.6573 294.546 70.3752 297.224 75.2186C298.407 77.3565 299.642 79.4497 301.029 81.6221C301.298 82.0446 301.174 82.6049 300.752 82.8739C300.33 83.1434 299.769 83.0195 299.499 82.5976C298.091 80.3908 296.837 78.2656 295.636 76.0956L295.135 75.1811C292.683 70.669 291.069 67.0792 289.983 63.4151C288.907 59.7866 288.597 56.3268 289.209 53.1323C289.409 52.092 289.672 51.3564 290.174 50.7133Z" fill="black"/>
<path d="M312.324 43.8002C313.789 41.7899 315.489 40.8415 317.343 41.5868C319.369 42.4003 320.422 44.4585 320.919 47.4819C321.024 48.1214 321.102 48.7899 321.166 49.5412L321.194 49.8942L321.291 51.305C321.904 60.3456 321.653 69.4002 320.678 82.1787C320.64 82.6779 320.204 83.0515 319.704 83.0134C319.205 82.9753 318.831 82.5401 318.869 82.0409L319.016 80.0662C319.846 68.6132 320.048 60.209 319.512 51.8979L319.426 50.5954C319.403 50.2563 319.382 49.9728 319.359 49.6942C319.299 48.987 319.226 48.3638 319.129 47.7756C318.725 45.3186 317.938 43.7797 316.667 43.2689C315.002 42.6004 312.986 45.3663 311.702 49.0087C310.237 53.1673 309.631 57.7925 309.635 63.4482L309.641 64.393C309.666 66.5907 309.76 68.6198 309.976 72.0289L310.126 74.3276C310.158 74.8275 309.779 75.2584 309.28 75.2911C308.78 75.3237 308.348 74.9453 308.316 74.4455L308.106 71.1766C307.917 68.0964 307.839 66.1694 307.823 63.9783C307.78 57.894 308.403 52.917 309.991 48.4061C310.548 46.8243 311.368 45.1107 312.324 43.8002Z" fill="black"/>
<path d="M338.711 66.4185C340.282 66.2287 341.547 66.8186 342.099 68.3116C342.377 69.0587 342.395 69.8384 342.252 70.8466C342.014 72.4484 341.521 74.0423 340.73 75.9686C339.765 78.3145 338.622 80.5382 337.315 82.5957C337.046 83.0182 336.486 83.1434 336.063 82.875C335.64 82.606 335.515 82.0457 335.783 81.6232C337.033 79.6576 338.127 77.5281 339.052 75.2796C339.792 73.4777 340.245 72.0144 340.457 70.5849C340.561 69.8559 340.549 69.347 340.398 68.9432C340.169 68.3237 339.735 68.1212 338.929 68.2185C338.176 68.3098 337.248 68.6779 336.37 69.1777C334.625 70.1745 333.026 71.4087 331.644 72.8286C331.295 73.187 330.721 73.1949 330.361 72.8455C330.003 72.4967 329.995 71.9225 330.345 71.5635C331.845 70.0221 333.579 68.6839 335.471 67.6026C336.542 66.9933 337.675 66.5442 338.711 66.4185Z" fill="black"/>
<path d="M329.396 51.3364C330.786 50.3059 332.183 50.0623 333.373 51.0475C334.4 51.8974 334.679 53.0657 334.806 55.1934C335.117 60.3946 334.115 65.6055 331.854 72.4846C331.551 73.3883 331.248 74.2786 330.943 75.1545L329.291 79.8262L329.237 79.9664C329.065 80.4367 328.544 80.6779 328.074 80.5056C327.603 80.3333 327.362 79.8123 327.534 79.342L327.61 79.1414L328.928 75.4228C329.331 74.2774 329.733 73.1054 330.133 71.9134C332.326 65.238 333.289 60.2278 332.996 55.301C332.901 53.7077 332.693 52.8385 332.216 52.4444C331.81 52.1083 331.274 52.202 330.476 52.7925C329.799 53.2948 329.206 53.9386 328.384 54.9625C327.275 56.3382 326.331 57.8995 325.247 60.0519L325.074 60.3964C323.801 62.952 322.612 65.6913 321.359 68.887C321.177 69.353 320.65 69.5833 320.184 69.4008C319.718 69.2176 319.487 68.6918 319.67 68.2258C320.941 64.9835 322.151 62.1971 323.45 59.5895C324.661 57.1506 325.706 55.3947 326.97 53.8261C327.886 52.6856 328.556 51.9596 329.396 51.3364Z" fill="black"/>
<path d="M299.907 89.6599C300.146 89.5306 300.429 89.5161 300.678 89.617L300.769 89.6599L304.815 91.8444L308.858 89.6599C309.097 89.5306 309.38 89.5161 309.629 89.617L309.72 89.6599L313.764 91.8438L317.807 89.6599C318.046 89.5306 318.329 89.5161 318.578 89.617L318.67 89.6599L322.711 91.8438L326.753 89.6599C326.992 89.5306 327.275 89.5161 327.523 89.617L327.615 89.6599L331.655 91.8438L335.696 89.6599C335.934 89.5306 336.217 89.5161 336.466 89.617L336.558 89.6599L341.031 92.0777C341.472 92.3159 341.636 92.8659 341.398 93.3065C341.174 93.7212 340.673 93.8904 340.247 93.7109L340.169 93.6728L336.127 91.4878L332.087 93.6728C331.848 93.8022 331.565 93.8167 331.316 93.7157L331.224 93.6728L327.183 91.4878L323.142 93.6728C322.903 93.8022 322.62 93.8167 322.371 93.7157L322.279 93.6728L318.238 91.4878L314.196 93.6728C313.957 93.8022 313.674 93.8167 313.425 93.7157L313.333 93.6728L309.289 91.4872L305.246 93.6728C305.007 93.8022 304.724 93.8167 304.476 93.7157L304.384 93.6728L300.338 91.4878L296.293 93.6728C295.878 93.8971 295.366 93.7647 295.109 93.3809L295.064 93.3059C294.84 92.8913 294.972 92.3799 295.355 92.1224L295.43 92.0777L299.907 89.6599Z" fill="black"/>
<path d="M301.736 97.98C301.998 97.8223 302.32 97.8078 302.592 97.9371L302.673 97.98L306.216 100.115L309.757 97.98C310.019 97.8223 310.341 97.8078 310.614 97.9371L310.694 97.98L314.231 100.114L317.771 97.98C318.033 97.8223 318.356 97.8078 318.628 97.9371L318.709 97.98L322.246 100.115L325.786 97.98C326.048 97.8223 326.37 97.8078 326.643 97.9371L326.723 97.98L330.261 100.115L333.798 97.98C334.06 97.8223 334.382 97.8078 334.656 97.9371L334.736 97.9807L338.739 100.398C339.167 100.657 339.305 101.214 339.047 101.643C338.802 102.046 338.294 102.192 337.878 101.992L337.801 101.95L334.266 99.8151L330.73 101.951C330.468 102.108 330.146 102.123 329.872 101.994L329.793 101.951L326.254 99.8151L322.716 101.951C322.453 102.108 322.131 102.123 321.858 101.994L321.778 101.951L318.239 99.8151L314.701 101.951C314.438 102.108 314.116 102.123 313.843 101.994L313.763 101.951L310.225 99.8151L306.685 101.951C306.423 102.108 306.101 102.123 305.828 101.994L305.748 101.951L302.204 99.8145L298.66 101.951C298.256 102.194 297.739 102.086 297.464 101.715L297.415 101.642C297.172 101.239 297.28 100.721 297.651 100.446L297.724 100.398L301.736 97.98Z" fill="black"/>
<path fill-rule="evenodd" clip-rule="evenodd" d="M118.333 83.1494C118.333 91.8286 111.295 98.8649 102.613 98.8649C93.9311 98.8649 86.8926 91.8286 86.8926 83.1494C86.8926 74.4703 93.9311 67.434 102.613 67.434C111.295 67.434 118.333 74.4703 118.333 83.1494Z" fill="black"/>
<path fill-rule="evenodd" clip-rule="evenodd" d="M73.6349 59.482C73.6349 63.8642 70.0815 67.4171 65.6973 67.4171C61.3138 67.4171 57.7598 63.8642 57.7598 59.482C57.7598 55.0998 61.3138 51.5469 65.6973 51.5469C70.0815 51.5469 73.6349 55.0998 73.6349 59.482Z" fill="black"/>
<path fill-rule="evenodd" clip-rule="evenodd" d="M148.58 51.4653C148.58 55.8475 145.026 59.4004 140.642 59.4004C136.258 59.4004 132.704 55.8475 132.704 51.4653C132.704 47.0831 136.258 43.5302 140.642 43.5302C145.026 43.5302 148.58 47.0831 148.58 51.4653Z" fill="black"/>
<path fill-rule="evenodd" clip-rule="evenodd" d="M86.8756 129.488C86.8756 133.871 83.3216 137.424 78.9381 137.424C74.5539 137.424 71.0005 133.871 71.0005 129.488C71.0005 125.106 74.5539 121.553 78.9381 121.553C83.3216 121.553 86.8756 125.106 86.8756 129.488Z" fill="black"/>
<path fill-rule="evenodd" clip-rule="evenodd" d="M145.272 107C145.272 111.382 141.719 114.935 137.335 114.935C132.951 114.935 129.397 111.382 129.397 107C129.397 102.618 132.951 99.0651 137.335 99.0651C141.719 99.0651 145.272 102.618 145.272 107Z" fill="black"/>
<path d="M64.68 58.8292C65.0229 58.2955 65.7146 58.1214 66.2654 58.4145L66.3506 58.4647L103.266 82.1322C103.762 82.4502 103.953 83.0752 103.731 83.6113L103.69 83.6996L80.0153 130.039C79.7111 130.633 78.9832 130.869 78.3882 130.565C77.8217 130.276 77.581 129.601 77.8217 129.024L77.8616 128.938L101.037 83.5756L65.0452 60.4999C64.5114 60.1571 64.3372 59.4651 64.6299 58.915L64.68 58.8292Z" fill="black"/>
<path d="M139.868 50.5368C140.381 50.1088 141.143 50.1783 141.572 50.6915C141.977 51.1787 141.936 51.8907 141.49 52.3271L141.417 52.3936L104.613 83.0564L138.019 106.004C138.542 106.363 138.693 107.06 138.383 107.601L138.331 107.685C137.971 108.207 137.274 108.36 136.733 108.049L136.649 107.996L101.928 84.1456C101.295 83.711 101.228 82.8128 101.765 82.2869L101.839 82.221L139.868 50.5368Z" fill="black"/>
<path fill-rule="evenodd" clip-rule="evenodd" d="M315.268 205.672C324.077 190.412 340.364 180.812 358.328 180.812C376.298 180.812 392.577 190.407 401.399 205.671C401.561 205.951 401.561 206.298 401.399 206.578C392.578 221.832 376.289 231.427 358.328 231.427C340.37 231.427 324.091 221.834 315.269 206.578C315.106 206.298 315.106 205.952 315.268 205.672ZM399.31 205.702C390.787 191.648 375.611 182.807 358.847 182.628L358.328 182.625C341.365 182.625 325.955 191.508 317.357 205.702L317.104 206.124L317.358 206.546C325.88 220.592 341.057 229.432 357.81 229.611L358.328 229.614C375.289 229.614 390.7 220.735 399.31 206.546L399.562 206.124L399.31 205.702Z" fill="black"/>
<path fill-rule="evenodd" clip-rule="evenodd" d="M358.333 220.85C366.471 220.85 373.068 214.255 373.068 206.12C373.068 197.985 366.471 191.39 358.333 191.39C350.196 191.39 343.599 197.985 343.599 206.12C343.599 214.255 350.196 220.85 358.333 220.85ZM365.551 206.923C367.758 206.923 369.547 205.134 369.547 202.928C369.547 200.722 367.758 198.933 365.551 198.933C363.343 198.933 361.554 200.722 361.554 202.928C361.554 205.134 363.343 206.923 365.551 206.923Z" fill="black"/>
<path d="M431.026 205.213C431.526 205.213 431.933 205.619 431.933 206.12C431.933 206.591 431.573 206.978 431.113 207.023L431.026 207.026H420.444C419.942 207.026 419.537 206.621 419.537 206.12C419.537 205.649 419.896 205.261 420.356 205.217L420.444 205.213H431.026Z" fill="black"/>
<path d="M416.148 181.265C416.399 180.832 416.954 180.683 417.387 180.934C417.795 181.169 417.951 181.675 417.76 182.095L417.719 182.172L412.428 191.334C412.178 191.768 411.623 191.916 411.189 191.666C410.781 191.43 410.626 190.925 410.817 190.505L410.857 190.427L416.148 181.265Z" fill="black"/>
<path d="M411.189 220.574C411.597 220.338 412.113 220.456 412.381 220.832L412.428 220.906L417.719 230.068C417.97 230.501 417.822 231.055 417.387 231.306C416.979 231.542 416.464 231.424 416.196 231.047L416.149 230.974L410.857 221.813C410.607 221.379 410.756 220.824 411.189 220.574Z" fill="black"/>
<path d="M345.319 2.89709C353.055 2.89709 359.34 9.1029 359.465 16.8059L359.467 17.0398V95.9612C359.467 96.4617 359.061 96.8679 358.56 96.8679C358.088 96.8679 357.701 96.5082 357.657 96.0483L357.653 95.9612V17.0398C357.653 10.3003 352.244 4.82406 345.529 4.71224L345.319 4.71042H189.5C182.759 4.71042 177.281 10.1172 177.169 16.8295L177.167 17.0398V67.1094C177.167 67.6099 176.761 68.016 176.26 68.016C175.788 68.016 175.401 67.6564 175.357 67.1964L175.353 67.1094V17.0398C175.353 9.30721 181.561 3.02403 189.266 2.89891L189.5 2.89709H345.319Z" fill="black"/>
<path d="M279.133 21.0304C279.634 21.0304 280.04 21.436 280.04 21.9371C280.04 22.4085 279.68 22.7954 279.22 22.8395L279.133 22.8437H255.686C255.185 22.8437 254.779 22.4375 254.779 21.9371C254.779 21.4656 255.139 21.0781 255.599 21.0346L255.686 21.0304H279.133Z" fill="black"/>
<path d="M358.559 244.8C359.031 244.8 359.418 245.159 359.462 245.619L359.466 245.706V354.473C359.466 362.206 353.258 368.489 345.553 368.614L345.319 368.616H189.5C181.765 368.616 175.479 362.41 175.354 354.707L175.352 354.473V294.739C175.352 294.238 175.758 293.832 176.259 293.832C176.731 293.832 177.118 294.192 177.162 294.651L177.166 294.739V354.473C177.166 361.212 182.575 366.688 189.29 366.801L189.5 366.803H345.319C352.06 366.803 357.538 361.396 357.651 354.683L357.652 354.473V245.706C357.652 245.205 358.058 244.8 358.559 244.8Z" fill="black"/>
<path d="M279.133 348.671C279.634 348.671 280.04 349.077 280.04 349.578C280.04 350.049 279.68 350.437 279.22 350.48L279.133 350.484H255.686C255.185 350.484 254.779 350.078 254.779 349.578C254.779 349.106 255.139 348.72 255.599 348.675L255.686 348.671H279.133Z" fill="black"/>
<path d="M358.334 143.63C358.805 143.63 359.192 143.99 359.236 144.449L359.241 144.537V169.809C359.241 170.31 358.834 170.716 358.334 170.716C357.862 170.716 357.475 170.357 357.43 169.897L357.427 169.809V144.537C357.427 144.035 357.832 143.63 358.334 143.63Z" fill="black"/>
<path fill-rule="evenodd" clip-rule="evenodd" d="M405.038 323.102C411.48 328.92 411.985 338.857 406.165 345.298C400.345 351.739 390.404 352.243 383.962 346.425C377.519 340.607 377.014 330.669 382.834 324.228C388.655 317.788 398.596 317.284 405.038 323.102Z" fill="black"/>
<path fill-rule="evenodd" clip-rule="evenodd" d="M403.591 286.582C406.844 289.519 407.099 294.537 404.16 297.789C401.221 301.041 396.202 301.296 392.948 298.357C389.696 295.42 389.442 290.402 392.38 287.15C395.319 283.899 400.338 283.644 403.591 286.582Z" fill="black"/>
<path fill-rule="evenodd" clip-rule="evenodd" d="M440.8 319.107C444.053 322.044 444.308 327.062 441.369 330.314C438.431 333.566 433.411 333.821 430.158 330.883C426.905 327.946 426.651 322.927 429.589 319.676C432.528 316.424 437.547 316.169 440.8 319.107Z" fill="black"/>
<path d="M398.287 291.261L398.377 291.265C399.012 291.322 399.489 291.86 399.479 292.486L399.474 292.577L395.854 333.198L435.198 323.82C435.819 323.672 436.441 324.03 436.631 324.628L436.655 324.715C436.803 325.335 436.444 325.957 435.846 326.147L435.759 326.171L394.781 335.939C394.006 336.124 393.276 335.524 393.291 334.744L393.296 334.656L397.065 292.362C397.122 291.727 397.66 291.251 398.287 291.261Z" fill="black"/>
<path fill-rule="evenodd" clip-rule="evenodd" d="M172.306 125.891C167.115 130.725 167.603 139.384 172.762 144.06C180.239 150.837 194.194 145.855 196.017 135.966C196.075 135.647 196.12 135.324 196.149 135.001C196.636 129.618 193.144 124.597 193.925 119.241C194.174 117.537 195.262 116.092 196.284 114.706C198.57 111.61 201.757 107.257 201.013 103.17C200.609 100.947 199.025 99.1328 197.365 97.5993C195.194 95.5938 189.836 91.4769 193.161 88.118C193.665 87.6091 194.371 87.241 195.067 87.0808C195.642 86.9484 196.274 86.9871 196.78 87.2887C198.444 88.28 198.871 90.2705 201.159 90.3369C202.328 90.3708 203.501 89.8117 204.211 88.8808C205.295 87.4586 205.212 85.4615 204.766 83.7292C204.519 82.7681 204.174 81.7696 204.417 80.8073C204.798 79.3059 206.509 78.4857 208.058 78.5092C209.607 78.5334 211.067 79.1765 212.549 79.6317C216.667 80.898 221.354 80.6641 225.038 78.4294C226.986 77.2484 228.7 75.3353 228.807 73.0608C228.898 71.1217 227.809 69.3108 226.485 67.891C223.071 64.2281 218.039 62.4426 213.063 61.8671C208.167 61.3014 203.113 61.8012 198.529 63.6115C193.945 65.4225 189.853 68.577 187.19 72.7235C184.946 76.2172 183.801 80.3213 183.58 84.4491C183.355 88.659 184.361 92.6211 185.084 96.7198C185.67 100.052 184.351 103.812 181.985 106.178C180.186 107.975 178.03 109.379 176.183 111.128C174.246 112.962 172.672 115.327 172.526 118.062C172.423 119.985 173.301 121.021 173.933 122.686C174.445 124.035 173.281 124.999 172.392 125.812C172.363 125.838 172.334 125.865 172.306 125.891Z" fill="black"/>
<path d="M225.433 77.1547C225.922 77.0459 226.407 77.3541 226.515 77.8431C227.572 82.5995 227.864 87.0101 227.634 91.1511C227.233 98.7417 225.973 104.204 222.028 109.943C220.796 111.733 219.568 113.088 218.368 114.077C217.539 114.76 216.888 115.154 216.204 115.474C213.759 116.6 211.107 116.799 208.387 116.304C206.591 115.978 205.1 115.436 203.716 114.773C203.264 114.557 203.073 114.015 203.289 113.564C203.506 113.112 204.048 112.922 204.499 113.138C205.75 113.737 207.1 114.228 208.712 114.521C211.09 114.953 213.372 114.782 215.441 113.83C215.99 113.573 216.513 113.256 217.213 112.678C218.281 111.798 219.395 110.569 220.533 108.916C224.243 103.519 225.438 98.3409 225.823 91.0532C226.044 87.0669 225.763 82.8207 224.745 78.2366C224.636 77.7476 224.944 77.2635 225.433 77.1547Z" fill="black"/>
<path d="M210.417 114.741C210.912 114.664 211.376 115.003 211.452 115.498C212.079 119.542 211.534 123.569 209.233 127.139C208.636 128.069 207.998 128.902 207.061 129.828C205.675 131.2 204.019 132.332 202.059 133.117C200.102 133.894 198.114 134.221 196.159 134.18C195.658 134.17 195.26 133.756 195.271 133.255C195.281 132.755 195.695 132.357 196.196 132.367C197.918 132.402 199.667 132.116 201.388 131.432C203.107 130.744 204.563 129.748 205.785 128.539C206.613 127.72 207.176 126.986 207.708 126.158C209.738 123.008 210.224 119.417 209.66 115.775C209.583 115.281 209.922 114.817 210.417 114.741Z" fill="black"/>
<path d="M172.884 120.266C173.346 120.074 173.876 120.293 174.069 120.755C174.261 121.217 174.042 121.748 173.58 121.94C171.049 122.992 168.52 124.134 166.012 125.365C163.919 126.392 161.879 127.468 159.893 128.585C157.755 129.786 156.496 131.696 156.128 134.01C155.755 136.368 155.522 138.767 155.413 141.27L155.376 142.208C155.22 146.634 155.382 150.108 156.067 158.201L156.638 164.771C157.565 175.68 159.263 186.253 161.63 196.476C161.743 196.964 161.439 197.451 160.951 197.564C160.463 197.677 159.976 197.373 159.863 196.885C157.562 186.948 155.888 176.682 154.934 166.102L154.257 158.328C153.519 149.605 153.383 146.191 153.601 141.191C153.713 138.621 153.953 136.154 154.336 133.726C154.79 130.88 156.368 128.486 159.004 127.004C161.018 125.871 163.089 124.779 165.212 123.737C167.755 122.489 170.318 121.332 172.884 120.266Z" fill="black"/>
<path d="M209.777 115.896C209.941 115.423 210.458 115.172 210.931 115.335L211.932 115.677C212.335 115.812 212.753 115.95 213.23 116.105L217.047 117.346C218.285 117.755 219.181 118.066 220.41 118.51L221.556 118.928C226.264 120.655 227.726 121.382 229.935 123.07C233.924 126.128 235.804 129.618 237.765 135.639C240.21 143.114 242.652 151.146 245.019 159.369L245.919 162.517C247.023 166.402 247.984 169.88 248.816 172.961L249.483 175.45L250.37 176.596C252.04 178.738 253.748 180.864 255.498 182.975L256.552 184.239C259.249 187.46 262.021 190.617 264.893 193.752C265.232 194.121 265.206 194.694 264.837 195.033C264.468 195.371 263.894 195.346 263.556 194.977C260.665 191.823 257.876 188.645 255.162 185.404C252.673 182.437 250.268 179.443 247.935 176.414C247.862 176.318 247.809 176.209 247.777 176.093L247.31 174.344C246.304 170.6 245.1 166.239 243.669 161.24C241.315 153.016 238.884 144.963 236.447 137.449L236.041 136.201C234.184 130.503 232.451 127.283 228.832 124.51L228.486 124.25C226.634 122.876 225.201 122.195 220.904 120.62L219.064 119.954C217.844 119.519 216.853 119.186 215.186 118.645L212.428 117.751C211.657 117.499 211.027 117.288 210.338 117.05C209.865 116.886 209.614 116.37 209.777 115.896Z" fill="black"/>
<path d="M151.742 195.293C154.419 194.699 157.339 194.877 160.608 195.708C162.963 196.306 165.277 197.158 168.386 198.504L170.073 199.246L172.658 200.402C173.224 200.652 173.698 200.858 174.148 201.049L174.317 201.121C187.586 206.719 200.45 211.562 213.13 215.687C213.607 215.842 213.867 216.353 213.712 216.83C213.557 217.306 213.045 217.566 212.569 217.411C200.293 213.418 187.849 208.755 175.036 203.39L173.266 202.645C172.975 202.521 172.672 202.389 172.339 202.243L168.761 200.648L167.678 200.173C164.645 198.86 162.407 198.036 160.161 197.465C157.146 196.699 154.502 196.538 152.135 197.063C148.634 197.84 145.935 200.293 145.127 203.565C143.701 209.335 146.785 215.187 153.233 221.807C156.331 224.988 160.156 228.151 165.27 231.904L166.34 232.684C166.949 233.126 167.582 233.581 168.265 234.068L172.835 237.3C173.244 237.589 173.341 238.154 173.052 238.563C172.78 238.948 172.263 239.057 171.862 238.828L171.796 238.786C171.645 238.68 169.044 236.845 168.282 236.305L167.211 235.543C166.409 234.971 165.677 234.445 164.97 233.931L164.669 233.711C159.244 229.752 155.21 226.437 151.934 223.072C145.084 216.039 141.743 209.699 143.366 203.13C144.346 199.163 147.592 196.214 151.742 195.293Z" fill="black"/>
<path fill-rule="evenodd" clip-rule="evenodd" d="M155.883 252.735C151.947 249.786 151.035 243.443 154.621 239.837C156.589 237.856 159.931 237.363 162.601 237.233C165.907 237.074 169.371 238.113 172.677 237.914C176.052 237.711 179.136 236.187 182.504 235.943C184.237 235.818 186.049 235.937 187.587 236.745C188.835 237.402 189.82 238.471 190.646 239.615C191.131 240.285 192.265 241.972 191.506 242.774C191.204 243.091 190.695 243.691 190.263 243.62C188.157 243.272 186.086 242.881 183.897 242.439C181.818 242.019 179.717 241.697 177.588 241.557C174.795 241.373 171.157 241.481 169.567 244.183C167.828 247.139 169.657 250.481 172.349 252.067" fill="black"/>
<path d="M176.218 160.841C176.719 160.819 177.143 161.206 177.166 161.706L178.159 183.553L214.82 202.38C215.159 202.554 215.35 202.92 215.306 203.292L215.292 203.378L213.737 210.563C213.641 211.004 213.237 211.304 212.795 211.276L212.711 211.267L183.18 206.699C182.685 206.623 182.345 206.16 182.422 205.664C182.494 205.199 182.909 204.871 183.37 204.898L183.457 204.907L212.144 209.344L213.371 203.675L176.863 184.926C176.574 184.777 176.386 184.485 176.371 184.161L175.354 161.789C175.331 161.289 175.718 160.864 176.218 160.841Z" fill="black"/>
<path d="M213.513 203.024C213.597 202.561 214.02 202.244 214.481 202.283L214.567 202.294L225.113 204.206C225.211 204.224 225.306 204.258 225.394 204.307L225.478 204.36L234.886 211.078C235.293 211.369 235.388 211.936 235.097 212.343C234.823 212.726 234.305 212.833 233.905 212.601L233.832 212.554L224.588 205.953L214.244 204.078C213.78 203.994 213.463 203.571 213.501 203.111L213.513 203.024Z" fill="black"/>
<path d="M211.963 210.179C212.063 209.718 212.496 209.416 212.955 209.471L213.041 209.484L223.772 211.804C223.943 211.842 224.099 211.927 224.222 212.05L224.281 212.115L229.661 218.653C229.979 219.039 229.923 219.611 229.536 219.929C229.173 220.227 228.649 220.197 228.322 219.874L228.26 219.805L223.079 213.51L212.658 211.257C212.197 211.158 211.894 210.724 211.949 210.265L211.963 210.179Z" fill="black"/>
<path d="M297.012 185.183C297.772 184.983 298.396 185.77 298.061 186.453L298.022 186.524L285.148 208.117C284.892 208.548 284.335 208.688 283.904 208.432C283.499 208.19 283.351 207.683 283.549 207.266L283.59 207.189L295.328 187.501L247.148 200.19L228.324 229.542C228.129 229.845 227.775 230.002 227.424 229.948L227.336 229.931L197.828 222.428C196.977 222.211 196.911 221.049 197.688 220.718L197.772 220.687L223.426 212.365C223.903 212.211 224.414 212.472 224.569 212.948C224.715 213.396 224.492 213.876 224.068 214.059L223.986 214.09L201.316 221.443L227.15 228.012L245.811 198.914C245.917 198.75 246.071 198.625 246.252 198.557L246.344 198.527L297.012 185.183Z" fill="black"/>
<path d="M276.306 216.627C276.792 216.509 277.283 216.807 277.401 217.294C277.513 217.751 277.255 218.213 276.819 218.364L276.735 218.389L228.587 230.116L192.019 242.606C191.573 242.758 191.09 242.543 190.899 242.122L190.867 242.041C190.715 241.595 190.93 241.112 191.351 240.922L191.433 240.89L228.034 228.388L228.112 228.366L276.306 216.627Z" fill="black"/>
<path d="M227.199 158.164C227.199 157.097 228.697 156.923 228.975 157.902L228.996 157.991L234.225 184.918L250.991 197.664C251.366 197.949 251.457 198.47 251.213 198.863L251.164 198.935C250.879 199.309 250.358 199.4 249.965 199.157L249.894 199.107L232.851 186.152C232.699 186.036 232.588 185.876 232.533 185.695L232.51 185.603L229.012 167.593V185.291L235.225 205.188C235.365 205.638 235.138 206.115 234.711 206.294L234.629 206.324C234.179 206.464 233.702 206.236 233.523 205.811L233.494 205.728L227.24 185.7C227.222 185.642 227.209 185.582 227.203 185.521L227.199 185.43V158.164Z" fill="black"/>
<path d="M263.269 219.821L263.357 219.822L264.069 219.868C271.935 220.421 276.727 222.294 280.629 227.224C282.293 229.323 283.454 231.423 283.992 234.317C284.722 238.247 283.766 242.091 281.636 245.703C280.873 246.997 280.002 248.184 279.08 249.251C278.473 249.954 277.945 250.493 277.52 250.886C277.152 251.226 276.579 251.204 276.238 250.836C275.898 250.469 275.921 249.895 276.288 249.555L276.505 249.35C276.844 249.022 277.25 248.596 277.707 248.067C278.562 247.077 279.369 245.977 280.073 244.782C281.998 241.518 282.849 238.098 282.209 234.649C281.736 232.104 280.704 230.238 279.207 228.349C275.572 223.757 271.076 222.095 263.25 221.633C262.75 221.603 262.368 221.174 262.398 220.674C262.425 220.203 262.808 219.838 263.269 219.821Z" fill="black"/>
<path fill-rule="evenodd" clip-rule="evenodd" d="M273.954 213.216C273.954 209.179 277.228 205.906 281.267 205.906C285.305 205.906 288.578 209.179 288.578 213.216C288.578 217.253 285.305 220.526 281.267 220.526C277.228 220.526 273.954 217.253 273.954 213.216ZM286.764 213.216C286.764 210.18 284.304 207.72 281.267 207.72C278.23 207.72 275.768 210.18 275.768 213.216C275.768 216.252 278.229 218.713 281.267 218.713C284.304 218.713 286.764 216.252 286.764 213.216Z" fill="black"/>
<path d="M198.052 220.642C198.523 220.642 198.911 221.001 198.955 221.461L198.959 221.549L198.959 225.289L221.9 230.629C222.359 230.735 222.654 231.174 222.593 231.631L222.577 231.718C222.47 232.176 222.032 232.472 221.574 232.411L221.488 232.395L197.846 226.893C197.463 226.804 197.185 226.479 197.149 226.093L197.146 226.01V221.549C197.146 221.048 197.551 220.642 198.052 220.642Z" fill="black"/>
<path d="M277.014 218.201C277.242 217.754 277.788 217.578 278.234 217.805C278.654 218.02 278.836 218.516 278.666 218.946L278.629 219.026L277.195 221.834C277.092 222.034 276.919 222.189 276.711 222.268L276.62 222.297L272.866 223.292C272.382 223.42 271.885 223.132 271.757 222.649C271.636 222.193 271.884 221.726 272.318 221.566L272.401 221.539L275.763 220.649L277.014 218.201Z" fill="black"/>
<path fill-rule="evenodd" clip-rule="evenodd" d="M210.846 115.804C209.89 115.833 208.555 115.788 207.024 115.45C205.34 115.079 204.052 114.493 203.202 114.032C203.363 115.399 203.771 117.329 204.861 119.466C206.184 122.062 207.955 123.865 209.191 124.939C209.756 123.993 210.406 122.656 210.778 120.984C211.258 118.826 211.077 116.999 210.846 115.804Z" fill="black"/>
<path fill-rule="evenodd" clip-rule="evenodd" d="M164.038 324.397V368.503H8.47998C9.82044 367.023 21.7576 350.078 37.1521 350.078C52.7062 350.078 60.8106 359.777 73.8344 349.555C78.3376 346.021 85.2582 341.083 90.8395 341.083C96.2268 341.083 101.282 343.493 106.423 345.087C111.853 346.773 116.966 346.736 122.366 344.752C126.709 343.157 130.784 340.688 134.845 338.252C144.143 332.673 153.748 326.801 164.038 324.397Z" fill="black"/>
<path d="M127.749 293.819C141.798 293.819 153.186 305.206 153.186 319.254C153.186 333.301 141.798 344.689 127.749 344.689C119.707 344.689 112.291 340.936 107.51 334.666C107.206 334.268 107.283 333.699 107.682 333.396C108.08 333.092 108.649 333.169 108.953 333.567C113.394 339.391 120.279 342.875 127.749 342.875C140.797 342.875 151.372 332.299 151.372 319.254C151.372 306.207 140.797 295.632 127.749 295.632C115.899 295.632 105.928 304.399 104.341 316.022C104.273 316.517 103.816 316.865 103.32 316.797C102.823 316.73 102.476 316.273 102.544 315.776C104.253 303.259 114.989 293.819 127.749 293.819Z" fill="black"/>
<path d="M30.73 327.78C30.8411 327.36 31.2333 327.081 31.66 327.106L31.7458 327.116L43.3845 328.917L59.2016 331.359C59.6966 331.435 60.0359 331.898 59.9595 332.394C59.8876 332.859 59.473 333.187 59.0118 333.16L58.9248 333.151L43.1073 330.71L32.2758 329.032L24.8534 357.166L23.0818 363.87C22.9539 364.354 22.4576 364.642 21.9733 364.515C21.5176 364.394 21.2349 363.948 21.3099 363.492L21.3281 363.407L23.0996 356.703L30.73 327.78Z" fill="black"/>
<path d="M62.8743 267.544C63.1597 267.32 63.5482 267.289 63.8629 267.458L63.9398 267.504L98.9542 291.023C99.2547 291.225 99.404 291.585 99.3405 291.936L99.3206 292.024L92.452 316.147C92.3147 316.628 91.8129 316.908 91.331 316.771C90.8781 316.642 90.6036 316.19 90.6871 315.736L90.707 315.651L97.3954 292.161L63.4745 269.377L31.3185 294.591L43.9135 328.999L59.2016 331.359C59.6675 331.431 59.9955 331.845 59.9688 332.307L59.9595 332.394C59.8876 332.859 59.473 333.187 59.0117 333.161L58.9248 333.151L43.1077 330.71C42.8109 330.664 42.558 330.475 42.4292 330.208L42.3944 330.125L29.3888 294.595C29.2642 294.255 29.355 293.877 29.6129 293.629L29.6808 293.571L62.8743 267.544Z" fill="black"/>
<path fill-rule="evenodd" clip-rule="evenodd" d="M59.0637 314.99H108.231C108.732 314.99 109.138 315.396 109.138 315.897V358.579C109.138 359.08 108.732 359.486 108.231 359.486H59.0637C58.5628 359.486 58.1567 359.08 58.1567 358.579V315.897C58.1567 315.396 58.5628 314.99 59.0637 314.99ZM107.324 357.672V316.803H59.9703V357.672H107.324Z" fill="black"/>
</svg>
